<?xml version="1.0" standalone="no"?>
<!DOCTYPE svg PUBLIC "-//W3C//DTD SVG 1.1//EN" "http://www.w3.org/Graphics/SVG/1.1/DTD/svg11.dtd" >
<!--
2013-9-30: Created.
-->
<svg>
<metadata>
Created by iconfont
</metadata>
<defs>

<font id="iconfont" horiz-adv-x="1024" >
  <font-face
    font-family="iconfont"
    font-weight="500"
    font-stretch="normal"
    units-per-em="1024"
    ascent="896"
    descent="-128"
  />
    <missing-glyph />
    
    <glyph glyph-name="icon_chenggong" unicode="&#59066;" d="M512 61.60000000000002c178 0 322.4 144.3 322.4 322.4S690 706.4 512 706.4 189.6 562 189.6 384 334 61.60000000000002 512 61.60000000000002z m0-18.9c-188.5 0-341.3 152.8-341.3 341.3S323.5 725.3 512 725.3 853.3 572.5 853.3 384 700.5 42.700000000000045 512 42.700000000000045z m148.6 433.9l6.7-6.7c1.9-1.8 1.9-4.8 0-6.7L459.5 253.60000000000002c-3.7-3.7-9.7-3.7-13.4-0.1l-0.1 0.1-106.2 109.7c-1.8 1.9-1.8 4.9 0.1 6.7l6.8 6.6c1.9 1.8 4.9 1.8 6.7-0.1l99.4-102.7 201 202.7c1.9 1.9 4.9 1.9 6.8 0.1z"  horiz-adv-x="1024" />

    
    <glyph glyph-name="icon_toast_cuowu" unicode="&#59068;" d="M512 61.6c178 0 322.4 144.3 322.4 322.4S690 706.4 512 706.4 189.6 562 189.6 384 334 61.6 512 61.6z m0-18.9c-188.5 0-341.3 152.8-341.3 341.3S323.5 725.3 512 725.3 853.3 572.5 853.3 384 700.5 42.7 512 42.7z m-0.1 354.8l124.1 124c1.9 1.9 4.9 1.9 6.7 0l6.7-6.7c1.9-1.9 1.9-4.9 0-6.7l-124.1-124L649.4 260c1.9-1.9 1.9-4.9 0-6.7l-6.7-6.7c-1.9-1.9-4.9-1.9-6.7 0L511.9 370.7 387.8 246.6c-1.9-1.9-4.9-1.9-6.7 0l-6.7 6.7c-1.9 1.9-1.9 4.9 0 6.7l124.1 124.1-124 124c-1.9 1.9-1.9 4.9 0 6.7l6.7 6.7c1.9 1.9 4.9 1.9 6.7 0l124-124z"  horiz-adv-x="1024" />

    
    <glyph glyph-name="icon_toast_jinggao" unicode="&#59069;" d="M512 61.6c178 0 322.4 144.3 322.4 322.4S690 706.4 512 706.4 189.6 562 189.6 384 334 61.6 512 61.6z m0-18.9c-188.5 0-341.3 152.8-341.3 341.3S323.5 725.3 512 725.3 853.3 572.5 853.3 384 700.5 42.7 512 42.7z m-9.5 507.2c0 2.6 2.1 4.7 4.7 4.7h9.5c2.6 0 4.7-2.1 4.7-4.7v-218.1c0-2.6-2.1-4.7-4.7-4.7h-9.5c-2.6 0-4.7 2.1-4.7 4.7V549.9z m0-284.4c0 2.6 2.1 4.7 4.7 4.7h9.5c2.6 0 4.7-2.1 4.7-4.7v-47.4c0-2.6-2.1-4.7-4.7-4.7h-9.5c-2.6 0-4.7 2.1-4.7 4.7v47.4z"  horiz-adv-x="1024" />

    
    <glyph glyph-name="icon_tongzhi" unicode="&#58929;" d="M743.2 205c8.8-7.3 11-22 5-32.7l-3.4-6c-6.1-10.6-18.1-13.2-26.9-5.9L624 239.2c-8.8 7.3-11 21.9-4.9 32.6l3.4 6c6.1 10.6 18.1 13.3 26.8 6l93.9-78.8zM517 624.1c10.8 8.6 47 36.4 47-13.8v-428.9c0-50.1-35.9-24.6-47-16.4-36.7 26.9-111.6 69.5-163.4 107.4l-0.1 0.1c-0.6 0.3-1.3 2.4-1.9 2.8-6.3 3.5-9.1 13.2-43.3 13.3H241c-18 0-27.8 9-27.8 27V476.4c0 18.1 10.6 26.1 27.8 26.1h67c34.3 0 37.2 9.8 43.5 13.4 0.6 0.3 1.2 2.4 1.9 2.8l0.1 0.1c53.6 37.7 128 77.3 163.5 105.3z m265-201.2c13 0 23.4-10.5 23.5-23.4v-7.3c0-13-10.5-23.5-23.4-23.5H667.8c-13 0-23.4 10.5-23.4 23.5v7.3c0 12.9 10.5 23.4 23.4 23.4H782z m-162.9 96.4c-6.1 10.7-3.8 25.3 4.9 32.6l93.9 78.8c8.8 7.4 20.8 4.7 26.9-6l3.4-6.1c6-10.6 3.9-25.2-4.9-32.6l-93.9-78.8c-8.8-7.3-20.8-4.7-26.8 5.9l-3.5 6.2z"  horiz-adv-x="1024" />

    
    <glyph glyph-name="icon_tabbar_wode" unicode="&#58956;" d="M384.1 427.7c0-10.1-6.7-16.8-13.5-16.8s-13.5 6.7-13.5 16.8c0 84.1 67.3 151.4 148 151.4 6.7 0 13.5-6.7 13.5-16.8-3.4-6.7-6.7-13.5-16.8-13.5-63.8 0.1-117.7-53.8-117.7-121.1z m6.8-57.2c-3.4-3.4-3.4-6.7-3.4-10.1-3.4-3.4-6.7-3.4-10.1-3.4-3.4 0-6.7 0-10.1 3.4-3.4 3.4-3.4 6.7-3.4 10.1 0 3.4 0 6.7 3.4 10.1 3.4 6.7 13.5 6.7 20.2 0 3.4-3.3 3.4-6.7 3.4-10.1zM512 804.6c232.2 0 420.6-188.4 420.6-420.6S744.2-36.6 512-36.6 91.4 151.8 91.4 384 279.8 804.6 512 804.6z m0-191.8c-107.7 0-191.8-87.5-188.4-191.8 0-104.3 84.1-191.8 191.8-191.8 104.3 0 191.8 84.1 191.8 191.8-3.4 104.3-87.5 191.8-195.2 191.8z m0-615.7c104.3 0 201.9 43.7 272.5 111-23.6 57.2-67.3 107.7-121.1 141.3-3.4 3.4-10.1 6.7-13.5 10.1-40.4-26.9-87.5-47.1-137.9-47.1s-100.9 20.2-137.9 47.1c-3.4-3.4-6.7-3.4-6.7-3.4-57.2-30.3-104.3-80.7-131.2-141.3 67.2-74 168.1-117.7 275.8-117.7z"  horiz-adv-x="1024" />

    
    <glyph glyph-name="icon_tabbar_jiekuan" unicode="&#58957;" d="M215.2 18.3c-21 0-38 17-38 38V467.6c0 21 17 38 38 38h752.5c21 0 38-17 38-38v-411.3c0-21-17-38-38-38H215.2z m376.3 44.1c91.2 0 165.1 89.3 165.1 199.5s-73.9 199.5-165.1 199.5c-91.2 0-165.1-89.3-165.1-199.5-0.1-110.2 73.9-199.5 165.1-199.5z m-402.7 475c-21 0-38-17-38-38v-393.6h-15c-21 0-38 17-38 38V555.1c0 21 17 38 38 38h752.5c21 0 38-17 38-38v-17.7H188.8z m-79.5 83.5c-21 0-38-17-38-38v-393.6h-15c-21 0-38 17-38 38V638.6c0 21 17 38 38 38h752.5c21 0 38-17 38-38v-17.7H109.3z m579.2-407.1c0-10.3-2.8-20.4-8.3-30.4-5.5-10-14.5-18.7-26.8-26.1-12.3-7.4-28.2-12-47.5-13.7v-30.3H578v30.3c-11.8 1.4-24.7 4.4-38.7 8.9-14 4.6-26.9 10.3-38.6 17.2v49.4c7.5-5.7 15.5-10.9 23.9-15.7 8.4-4.8 17-8.8 26-12 8.9-3.2 18.1-5.3 27.4-6.5v57.9c-22.4 5.4-39.4 12-51.2 19.8-11.8 7.8-19.7 16-23.6 24.5-3.9 8.5-5.9 17.4-5.9 26.7 0 8.4 2.2 17.4 6.6 26.9 4.4 9.5 12.6 18.3 24.6 26.2 12 8 28.6 13.2 49.6 15.6v15.2H606v-15.2c13.1-1.6 25.3-4.5 36.5-8.6s23.3-10 36.5-17.8v-51.4c-8.4 6.6-19 13.3-31.9 20-12.9 6.8-26.6 11.7-41 14.8V292c25.3-8.1 45.4-18 60.2-29.8 14.7-11.5 22.2-27.8 22.2-48.4zM578 299v43.1c-7.4-0.3-13.8-2.3-19-5.7-5.3-3.5-7.9-8.3-7.9-14.4 0-4.1 1.9-8.3 5.7-12.8 3.8-4.5 10.9-7.9 21.2-10.2z m56.4-89.9c0 6.1-2.2 11.2-6.6 15.2-4.4 4-11.7 7.9-21.9 11.9v-51.4c8 1.6 14.8 4.1 20.2 7.5 5.5 3.3 8.3 8.9 8.3 16.8z"  horiz-adv-x="1024" />

    
    <glyph glyph-name="icon_tabbar_zhangdan" unicode="&#58958;" d="M917.942857 252.342857h-171.885714c-36.571429 0-69.485714 40.228571-69.485714 87.771429 0 47.542857 29.257143 87.771429 69.485714 87.771428h171.885714c18.285714 0 32.914286-18.285714 32.914286-43.885714v-87.771429c0-21.942857-14.628571-43.885714-32.914286-43.885714zM760.685714 384c-21.942857 0-43.885714-18.285714-43.885714-43.885714s18.285714-43.885714 43.885714-43.885715c21.942857 0 43.885714 18.285714 43.885715 43.885715s-18.285714 43.885714-43.885715 43.885714z m0-171.885714h149.942857v-87.771429c0-47.542857-40.228571-87.771429-87.771428-87.771428H157.257143C109.714286 36.571429 73.142857 76.8 73.142857 124.342857V643.657143c0 47.542857 40.228571 87.771429 84.114286 87.771428h665.6c47.542857 0 87.771429-40.228571 87.771428-87.771428v-175.542857h-149.942857c-69.485714 0-128-58.514286-128-131.657143 0-69.485714 58.514286-124.342857 128-124.342857z m87.771429 453.485714c0 10.971429-10.971429 21.942857-21.942857 21.942857H157.257143c-10.971429 0-18.285714-10.971429-18.285714-21.942857s10.971429-21.942857 21.942857-21.942857h665.6c10.971429 0 21.942857 10.971429 21.942857 21.942857z"  horiz-adv-x="1024" />

    
    <glyph glyph-name="icon_paizhao" unicode="&#58961;" d="M613.8 444a20.4 20 0 1 1 40.8 0 20.4 20 0 1 1-40.8 0ZM522.2 464c-50.6 0-91.6-40.3-91.6-90s41-90 91.6-90c50.6 0 91.6 40.3 91.6 90s-41 90-91.6 90z m0-160c-39.4 0-71.3 31.3-71.3 70s31.9 70 71.3 70 71.3-31.3 71.3-70-32-70-71.3-70zM512 832C264.6 832 64 631.4 64 384s200.6-448 448-448 448 200.6 448 448S759.4 832 512 832zM369.5 540c0 2.2 2 4 4.5 4h31.7c2.5 0 4.5-1.8 4.5-4v-12c0-2.2-2-4-4.5-4H374c-2.5 0-4.5 1.8-4.5 4v12zM736 264c0-40-40.7-40-40.7-40H328.7s-40.7 0-40.7 40V464c0 40 40.7 40 40.7 40h101.8l20.4 40h142.5l20.4-40h81.5s40.7 0 40.7-40v-200z"  horiz-adv-x="1024" />

    
    <glyph glyph-name="icon_used" unicode="&#58963;" d="M930.6 616.8c1.4 0.4 2.9 0.8 4 1.5 3.2-9.3 8-18 14.2-25.8-1.9-1.8 0-4.5-4.7-3.6l3.8-5.4c-4.7-3.6-4.7-3.6-5.7-8.2 1.9 1.8 4.7 0 9.5 3.6 3.8-5.4 0.9-11.8 7.6-14.5-2.8-1.8-0.9-4.5-5.7-8.2-0.5 0.7-0.7 1.6-0.5 2.5 0.2 0.9 0.7 1.6 1.5 2.1-2.8-0.6-5.2-2.3-6.5-4.8-1.3-2.5-1.3-5.4-0.1-7.9 2.1 1.6 4.9 2.3 7.6 1.8 2.8-2.7-1.9-2.7 1.9-7.3 2.8 1.8-0.9 7.3 3.8 10.9 3.8-8.6 4.7-20.4 11.4-27.6-4.7-3.6-7.6-5.4-5.7-8.2 1.5 0 2.9 0.7 3.8 1.8-2.4-5.5-0.9-11.9 3.8-15.9-5.7-3.6-7.6-6.4-9.5 0.9-1.9-1.8 0-4.5-2.8-6.4 9.5-1.8 3.8-14.5 13.3-10.9 4.7-16.3 2.8-34.4 3.8-50.3l-4.7-3.6c2.8-1.8 4.7 0 7.6 1.8-1.1-2.9-1.7-6-1.9-9.1-3.8 3.6-9.5-4.5-13.3-5.4 0 0.9-1 3.6 0.9 4.5-1.9 1.8-2.8-1.8-6.6 2.7 7.6 1.8-1 7.3 3.8 10.9-5.7 12.7-11.4 24 0.9 29.4 0 4.5-1.9 7.3 1 9.1-1.9 2.7-4.7 0-9.5 0.9-3.8 9-0.9 15.8-4.7 24.9 4.7 4.5 6.6 1.8 9.5 3.6-2.5 2.6-6.5 3-9.5 0.9-5.7 7.2-4.7 15.8-6.6 23.1 0.9 2.3 0.9 2.3 1.4 2.3v1.4c1.5-0.6 3.2-0.8 4.7-0.5l-1.9 2.7c-1.4 1.8-2.4 0.5-3.3-0.9-1.6 1.6-3.4 3.1-5.2 4.5 7.6 1.8-3.8 5.4 0.9 9.1l-2.8-1.8c-7.1 18.6-10 37.2-22.3 56.2l4.7 3.6c-0.4 0.6-0.8 0.9-1.3 1.2-1.8-0.6-3.5-1-4.7-1.9-5.8 10-5.1 7.4-1.6 5.2l-0.9 0.9 4.8 4c-0.3 1.1-0.7 2.1-1.3 2.9 3.5 0.1 6.9 1.4 9.5 3.7 3.4-1.3 3.2-3.5 3.6-6.4zM740 788.4c-0.5 1.8-0.9 3.8-1.9 5.3 2.9 2.1 6.9 1.7 9.3-1l-1.9-1.9 3.7-5.7c-2.8-1.8-2.8-1.8-7.4-1-0.5 0.6-0.9 1.4-1.3 2.3-0.3 0.7-0.5 1.4-0.5 2zM953.1 522v0.4c-1.4 2.7-1.4 2.7-4.7 0.5 3.8-4.5 9.5-0.9 8.5-5.4l5.7 3.6c-1.9 2.8-7.6-1.8-9.5 0.9z m-23.3 68.1c-1.9 7.3 5.7 8.2 11.4 12.7 5.6-7-5.7-8.8-11.4-12.4v-0.3z m7.6-14.5v0.3c2.8 1.8 0.9 4.5 2.9 6.1-0.8-0.5-1.7-0.7-2.6-0.5-0.9 0.2-1.7 0.7-2.2 1.4-1.9-2.8 0-4.6 1.9-7.3z m27-81.1v0.3c-2.8-1.8 0-4.5-0.9-9.3l4.7 4.5-3.8 4.5zM449.9 753.1c0.9-2.7-1.9-4.5-1-7.3-0.8-0.7-1.8-1-2.8-0.9 1 1.8-2.8 6.4 3.8 8.2z m98.2 11.8c0-7.3 2.8-6.4 2.8-6.4-1.9-4.5 8.5-3.6 6.6-8.2-4.7 1.8-10.4-0.9-13.3 5.4-4.7-5.4-1.9-11.8-6.6-10l-2.8 6.4 5.7 1.8c0.9 7.3-3.8 1.8-6.6 8.2 6.6 2.8 7.5 0.1 14.2 2.8z m-27-8.2l-4.7-1.8c1-1.6 2.9-2.3 4.7-1.8 1.9 0.9 0 2.7 0 3.6z m-65.5-0.9c3.3 4.1 5.7 1.3 7.5 2.3 0-1.8 1.9-1.8 4.3-6.8 6.2-0.9 17.6 12.7 16.6 4.5 1.9 3.6 10.4 9.1 12.3 3.6 0 0-1 3.6 1.9 4.5 2.8-2.5 6.6-3.8 10.4-3.7 3.8 0.2 7.5 1.8 10 4.6l2.8-6.4c1.9-2.7 1.9-2.7 4.7-1.8-1-2.3-1.3-4.8-0.9-7.3-8.5-3.6-16.1-3.6-19 2.7 2.8 0.9 0.9-3.6 7.6-0.9-0.9 2.7-3.8 1.8-8.5 3.6-2.8-1.8 2.8-6.4 2.8-6.4-9.9 0-22.3-5.4-28.9 2.7-3.8-8.2-9.5-3.6-19-7.3l-4.6 12.1z m171.2-25.9l-2.8-1.7 2.8 1.7z m42.2 94l-10.5-8.3c-3.8 5.5 0 4.6 1 9.2 4.7 0 7.6 1.9 9.5-0.9z m7.7-3.2c-4.7 0.9 1.9 2.8 4.8 4.6l3.8-5.5-4.8-3.7-3.8 4.6z m-298.2-99.4c1-2.3-1.6-3.7-3.8-8.3 1-2.8 7.7-0.9 8.6-3.7l-12.4-4.6c0.3 2.3-0.4 4.6-1.9 6.4 1.9 0.9-1.9 2.8-2.9 5.5l12.4 4.7z m244.7 2.8c8.1 4.1 15.3-11.5 17.7-3.7 2.2-4.8 1.8-10.3-1-14.7-1.9 6.4-8.6 3.7-11.5 2.8-0.8 3.3 0.7 6.7 3.8 8.3-2.2 2.7-5.2 4.6-8.6 5.5l3.4-7.4-3.8-1.4c-1 3.2-1 6.5 0 9.7-0.5 0.5-0.5 0.5-1 0.5 0.5-0.1 0.5 0.4 1 0.4z m-21.1-4.2c-5.7 3.2 2.9 1.4 0.5 6.4 5.6 0.6 11 1.8 16.3 3.7 1-1.8-4.8-4.6 0-9.2-4.3 3.7-12.9-1.8-16.8-0.9z m113.3 89.7c1.1-1.3 1.5-3 1.1-4.6-0.4-1.6-1.5-3-3-3.7l-3.8 4.6 5.7 3.7z m-59.2-107.2c-1.8 5.5 0.9 4.6 0 6.4 1-1.8 6.7 2.8 5.7-1.8-4.7 0-1.9-2.7-5.7-4.6z m-5.7 2.8c-3.9 0.9-6.7 0-6.7 2.8l9.6 3.7c-1-3.7-0.1-5.6-2.9-6.5z m-87 38.2c0.9-2.8-3.9-8.2 4.3-9.2-0.4 2.5-0.1 5 1 7.4 2.9 0.9 1-3.7 7.7-0.9-1.9-4.6-1.9-4.6 2.9-6.4-3.9-0.4-7.3-2.9-8.6-6.4-4.7 2.7-10.3 3-15.3 0.9-1 2.8 1.9 3.7 3.8 9.2-4.8 1.8-7.7 0.9-13.4 5.5 7.1 6.3 10.9-2.9 17.6-0.1z m-136.8-10.1c-3.3 0.9-10.9-4.6-7.7-9.2-1 2.8 6.7 1.8 8.6 6.4l-0.9 2.8z m-6.7-10.2c-3.7 1.8-14.7-5.5-20.5-0.9-1-7.4-9.6-3.7-12.4-4.6-1.9 3.7 2.9 1.8-2.9 6.4l6.7 2.8 2.9-6.4c5.7 2.8 4.8 5.5 6.7 10.1 11.8 1.8 23.4 4.2 34.9 7.4l3.8-9.2c-6.8-1.2-13.5-2.7-20.1-4.6l0.9-1z m37.3 18.9c0.9 0 0.9 0.9 0.9 2.3-0.6-0.7-0.9-1.5-0.9-2.3z m-230-550.6l7.3-8.6c-2.5-0.1-4.7-1.5-5.7-3.7-1.9 0.9-2.9-2.8-4.8-4.6l-8.6 10.1c2.9 1.8 4.8 0 9.6-0.9 1.4 0.9 1 2.8 0.5 4.6l-4.3 4.5 4.8 3.6c-3.8 5.4-6.7 2.7-11.4 3.6-5.2 12-10 16.5-17.6 30.9l6.7 6.3c4.8-5.8 4.8-10.3 10.5-16.6 0-4.5 10.5-12.5 7.6-18.8 7.6 1.8 6.7-7.2 8.6-9.9-1.6-1.3-2 0.8-3.2-0.5z m67.5 590.2c0.8 0 1.9 0.8 2.9 0.9-0.8-1.6-2.1-3-3.8-3.7-0.2 1 0.2 2.1 0.9 2.8z m661-468.9c1.8 0.7 3.8 0.8 5.6 0.1 1.8-0.7 3.2-2 4-3.8l-6.7-2.8c-1.1 2.1-2.1 4.3-2.9 6.5z m6.7 78.3h-1.9c-3.8-3.7 0-3.7 1.9 0zM342.6 704.1c1-2.8-1-7.4-6.7-10.1-2.3 6.6 4.8 6.6 6.7 10.1z m22 8.5c-0.5-0.5-1.4-0.5-1.9-0.9 1-0.4 2-0.8 2.9-1.4l-1 2.3z m-217-270.3v-0.2c-2.8 6 3.8 7.8 0 13.4 1 2.8 1.9-0.9 1.9-3.7 0 2.8 1.9 5.5 6.7 7.4l-1 2.8c-1.9 2.8-3.8-1.8-6.7-2.8-2.9 5.5 3.8 8.3-1.9 12.9 5.7 2.8 1.9 11.1 8.6 13.8l-2.9 6.5c2.9 0.9 1-3.7 7.7-0.9-9.6 6 2.9 10.6-1 19.8 6.7 0 2.9 19.3 9.6 11.1 2.9 0.9-2.9 6.5-3.8 9.2 5.7 2.8 1.9 11.1 8.6 13.8 4.8-1.8 2.9-6.4 3.8-9.2l-2.9-0.9c0.9-2.4 1.2-4.9 1-7.4 1 2.8 3.8 4.6 1.9 9.2 5.7 2.3 6.7 9.2 2.9 18.4 2.9 0.9 5.7 2.8 4.8 5.5l6.7 2.8c2.9 1.8-1.9 3.7-2.9 6.4 2.9 0.9 1-3.7 7.7-0.9-1 2.8-2.9-1.8-5.7 4.6 2.9 0.9 1 7.4 3.8 8.3 0.4-0.7 0.8-1.5 1-2.3 12.9 22.1 29.2 42.1 48.3 59.5-1 2.8 1.9 4.6 1 7.4 16.2 5.9 16.7 19.8 36.8 24.4l3.4-6.9c2.9 1.8-2.9 6.4-2.9 6.4 5.7-4.6 4.8 5.5 8.6-3.7 2.9 0.9-1.9 2.8 4.8 5.5-1 2.8-2.9-1.8-5.7 4.6 8.6 6.4 22.4 15.7 31.1 12 6.7 1.8 4.8 5.5 3.8 8.3 6.7 2.8-1-7.4 5.7-4.6 3.8 0.9 1.9 4.6 1 7.4 5.2 2.8 18.6 14.7 24.4 10.1-1 2.8 5.7 5.5 8.6 6.4l1.9-3.2c1.4 0.5 1.9 0 2.9-0.9l-2.4-1.8c1-0.7 1.9-1.7 2.4-2.8-16.3-5.1-32-18.9-45.4-20.7-5.7-12.8-29.1-17.9-38.7-29-3.8-0.9-3.8-0.9-4.8 1.8 0-6.4-9.6-10.1-11.5-14.7-33-23.5-47.3-49.3-67.9-78.3-2.9 6.4 0 7.4 1 14.7-1.9 2.3-3.4-0.9-5.7-2.3 2.9-9.2-1.4-11.5 4.8-18.9-8.1-6-7.2-16.1-16.7-19.8 2.9-6.4 1-10.1-5.7-12.9-1-0.1-2-0.4-2.9-0.9 0-2.8 1-5.5 4.8-5.5-15.7-24.4-16.2-51.5-26.3-75.9-2.8 1.3-6.6-3.3-6.6-3.3z m675.3 290.1c-4.8-3.7-9.6 0.9-12.4-5.5-4.8 5.5 0 4.6-1 6.4 3.6 0.1 7 1.4 9.6 3.7l3.8-4.6z m50.2-73.7c-1.9 1.8 0 3.7 1.9 4.6l2.9-3.7c-1-0.9-2.9 3.7-4.8-0.9z m-10.5 22.1c-4.7 4.9 7.7 6 1 9.2 4.8-0.9 9.6-5.5 14.4-1.8 1.9-2.8 0-4.6-2.9-6.4-7.7 2.7-9.6 0.9-12.5-1z m19.6-23c-1.1 2.5-2.7 4.7-4.8 6.4 3.8-0.9 3.8-0.9 4.8 3.7 1.1-3.3 1.1-6.8 0-10.1z m-15.8 39.1l-4.8-3.7-1.9 2.8c1.9 1.8 3.8-0.9 4.8 3.7 4.8-1-2.9-1.9 1.9-2.8zM149.6 357.5c-1-1.9-2.9-1.9-4.8-1.8v-0.9c-1.4-0.7-2.1-2.2-1.9-3.7 2.8 0.8 7.6-1 6.7 6.4z m0.9-19.8l-1.9-1.8c-1-0.9-1-0.9-1-1.8 2-0.1 2.9 1.7 2.9 3.6zM140 367.5c-1-2.8 1-5.5 2.9-8.3-0.1 1.4-0.8 2.7-1.9 3.7 3.3-0.5 3.8-0.9 4.3 2.3-0.4-0.4-0.9-0.5-1.4-0.5-1.9 1.8 0 1.8 0 3.7h-1l-2.9-0.9z m260.4 160.6l7.2-17-253.3-97.9-2.9-0.9v-17c0.7-0.7 1.1-1.8 1-2.8-0.1-0.7-0.4-1.3-1-1.8v-0.9c1 0 1 0 1.9-0.9 1.9-1.8 0-4.6 3.8-9.2 0-4.6-4.8-3.7-2.9-6.4-0.8-0.7-1.8-1-2.9-0.9 0.1-1.6-0.2-3.2-1-4.6-1.9-0.9-2.9 0.9-4.8 0.9 0.3-0.7 0.5-1.5 0.5-2.3 1.8-2.8 4.8-4.6 8.1-5.1-1.4-4.8-0.3-9.9 2.9-13.8-2.9-1.8-4.8 0-9.6 0.9v-2.8h1l1.9-3.7c0 0.9 1 0.9 1.9 0.9-1-4.6 2.9-10.1-1.9-13.8 6.7-2.8 12.4 0.9 11.5-3.7l-4.8-3.7-3.8 4.6c-7.7-1.8-1-4.6-4.8-8.3-3.8 4.6-1.9 7.4-5.7 12 6.7 0.9 4.8 3.7 4.8 3.7l-1 0.9c-1-1.8-1.9-2.8-2.9-2.8 0.8 1.4 1.1 3 1 4.6-2.9 4.6 1 9.2-1.9 12.9l-5.7-1.8c-7.7 25.3-2.9 48.3-3.8 68.1 2.7 0.6 5.2 1.5 7.7 2.8l-2.9 6.4 3.8 1.8c-1.1-0.1-2.1 0.2-2.9 0.9 1.6 0.9 2.4 2.8 1.9 4.6l9.6 3.7c0.7-1.4 1-3 1-4.6h1.9l247.1 97zM982 397.5h-0.3c-1-0.9-1.9-0.9-2.5-1.8 1.9 1.8-3.8 4.6 1 8.3-0.4-2.4 0.3-4.7 1.8-6.5z m-12.5-0.9l2.9-3.7 5.7 3.7c-1.1-2.1-3.3-3.5-5.7-3.7h-4.3c-1-1.2-2.6-1.9-4.3-1.8 1 0 1 0.9 1 1.8 3.4-0.9 0.5 3.7 3.8 3.7v0.4c-1.9 0.9-4.3 0-5.7 2.3 0.7 0.1 1.4 0.4 1.9 0.9-1 0-1 0 0 0.9v-0.9c0-0.5 1.9-1.4 3.8-2.8l0.5-0.5c0.1 0 0.2 0 0.3-0.1 0.1 0 0.1-0.1 0.1-0.2zM749.4 663.4l7-17.4-314.9-122.4-24.4 10.1 332.3 129.7z m-8.5 121.4v-1.7c1.5-0.9-0.2 0.8-0.2 1.6l0.2 0.1z m-153.5-54.3c4.8 5.5 10 0 12.4 3.7l2.9-6.5c-3.8 1.8-1.9-4.6-4.8-5.5-2.9-1.8-3.8 1.8-10.5-0.9-4.8 1.8-2.9 5.5-5.7 4.6-1 2.8 1.9 4.6 1 7.4-1 2.8-7.7 0-5.7 4.6 2.9 0.9 1-3.7 7.7-0.9l2.7-6.5z m370.9-445.9c5.7 2.7 7.1 6.3 12.4 5.4 1-2.7-6.7-2.7-1-7.2-7.6 0 0-7.2-6.7-9.9-1 2.7 1.9 4.5 1 7.2-1.2 2.1-3.3 3.8-5.7 4.5-0.1 0-0.1 0 0 0 1-2.7-3.8-0.9-1-7.2 6.2 2.6 1.5 6.7 1 7.2z m21.3 204c0 0.9 1.7 1.8 1.7 2.7-0.8-0.8-1.4-1.7-1.7-2.7zM203.2 223.7l2.9 1.8c4.8-0.9 6.7-7.2 8.6-5.4-3.6-6.2-12.6-0.9-11.6 3.6h0.1zM645-44.6c1.1-3.9 1.9-7.8 2.6-11.8 0.9 3.8 3.7 6.7 5.6 5.7l0.2-0.2c0.9-2.4-4.6-4.8-1.4-9.5l-2.8-0.9c0-2.9 0-3.8-0.9-4.8l-2.8 6.7c0-5.7-8.4-8.6-15.8-12.4 0 1.9 0 2.9-0.9 2.9l0.9-2.9c-2.1-0.9-3.9-2.2-5.6-3.8-1.1 2.2-0.7 4.9 0.9 6.7-4.2-1.8-8.5-3.1-13-3.8 0.9-2.9 2.8 1.9 5.6-4.8-4.8-2.1-10.3-1.8-14.9 1 3.7 3.8-0.9 9.5-2.8 13.3-1.9 0.1-3.8-0.2-5.6-1h2.8c-1.1-3.5-0.8-7.3 0.9-10.5-5.1-5.7-7 1-16.3-2.9-3.7-1 4.9 4.1 4.6 5.7-0.2 1.6-0.5 3.2-0.9 4.8-0.9-1-2.8-1-4.6-1.9l-0.9 1.9-1.4-0.5c0.5 0 0.5-0.5 0.5-0.9-0.5-0.1-1 0.1-1.4 0.5l-1.4-0.5c1.9-2.9 0-7.6 0.9-10.5-9.9 0.3-19.9-1.3-29.2-4.8-1.9 3.8-4.6 1.9-2.8 6.7l-6.5-2.9c-1.9 4.8-2.8 5.7-4.6 6.7-0.7-0.1-1.4-0.4-1.9-1a8.78 8.78 0 0 1 0-8.6c-6-1.9-11.6 2.9-16.3-2.9-0.9 3.8-3.7 1.9-6.5 8.6 3.7 1 4.7-4 4.6-1.9 0 2-0.7 4-1.9 5.7h-0.9c-2.8-1-3.7-1-3.7-1.9-0.1 0.7-0.4 1.4-0.9 1.9-0.9 1-2.8 0-3.7-1.9v-1.9h-0.8c-1.9 1-1.9 1.9-3.7 1.9 0-0.9 0-0.9-0.9-1.9h-0.9c1.9-1 6.5-1 8.4-5.7-10.2-0.9-20.9 1.9-30.1-1.9-1.9 6.7-3.7 9.5-6.5 8.6-0.7-1.6-0.3-3.5 0.9-4.8-4.2 3.8-7.9 4.8-16.2 1.9-0.9 2.1-1.6 4.4-1.9 6.7-3.7 1-8.4 1-13 1.9-0.9-1-0.9-1.9-0.9-3.8-17.6 0-33.9 6.7-49.6 11.4l-0.9 1.9c-1.9 0-2.8 1-3.7 1-0.1-1.6 0.2-3.3 0.9-4.8-2.8 1-5.6 2.9-8.4 3.8 0.9 1 1.9 1 1.9 1.9-3.6 1.7-7.3 3-11.1 3.8-25.1 7.7-49.4 18-72.4 30.9-1.9 2.9-4.6 0-9.3 1-6.5 2.9 4.6 3.8 2.8 6.7-1.9 2.9-4.6-3.8-4.6-3.8-1.9 2.9-13.9 1.9-8.4 10.5-1.9 2.9-1.9-1.9-4.6-3.8-7.8 5.7-19 14.3-27.4 20-2.8 2.9 1.9 2.9-1.9 7.6-11.1 3.8-28.3 14.7-32 24.2-2.8-2.9-4.6 0-7.4-1.9-12 16.1-22.7 19-32.9 36.6 2.8 2.9 4.6 0 7.4 1.9 2.8 1.9-3.7 4.8-3.7 4.8 0-4.8-1.9-1.9-9.3-3.8-7.9 10.4-22.8 23.3-21.8 32.8-6.5 3.8-4.6 5.7-13 11.4 5.6 8.1-8.4 10-13.9 22.4l7.4 6.7c-4.6 4.8-6.5 2.9-9.3 1-3.7 5.7-8.4 10.5-0.9 12.4-2.8 1.9-4.6 0-7.4-1.9-11.6 19.5-16.2 36.6-26.4 54.2 4.6 4.8 6.5 1.9 9.3 3.8 1.9-2.9-5.6-4.8 0-5.7 2.8 1.9 7.4-2.9 12.1 1-4.5 2.2-8.9 4.8-13 7.6 2.8 5.7 4.6 7.6 2.8 10.5-4.2-3.3-4.6-3.8-3.7-8.6 0.3 0 0.6-0.2 0.8-0.5 0.2-0.3 0.2-0.7 0-1-0.2-0.3-0.5-0.5-0.8-0.5-0.5 0 0 0.5-0.5 1s-0.9 1-1.4 1c-2.8-1.9-2.8-1.9-0.9-4.8-10.7 8.6-8.8 22.3-17.2 32.8l4.6 3.8c0.9 4.8-4.6 1-6.5 2.9-8.2 31.5-11.9 62.4-17.5 96.1l1.9 1.9c-0.5 0-0.9 0.4-0.9 1h1.4l0.9 0.9c-8.4 5.7-3.7 10.5-7.4 15.2 6 6.5 13.5 11.4 21.8 14.3 0.9 0 0.9-0.9 1.9-1.9-1.9 1.9-4.6-4.8-6.5-1.9-0.9-4.8 3.7-4.8 6.5-2.9-1.9 1.9 0 3.8 0 4.8 0.9-1.9 1.9-3.8 0-4.8 2.7-39.9 5.1-80.3 23.6-124.5l-4.6-4.8c1.9-1.9 2.8 1.9 6.5-2.9-2.8-1.9-2.8-1.9 0-6.7-0.7-0.5-1.6-0.7-2.5-0.5-0.9 0.2-1.6 0.7-2.1 1.5l1.8-2.6c0-0.5 0.5-0.5 0.9-0.5-2.3 0-4.6 0-5.6 1.4 0-2.5-1-4.9-2.8-6.7l3.7-4.8c0.9 9.5 7.4 0.9 5.6 8.6 0.5-0.8 1.2-1.3 2.1-1.5 0.9-0.2 1.8 0 2.5 0.5 3.7-9 5.6-16.6 11.1-29-1.9-1.9-4.6-3.8-2.8-6.7-2.8-2.9-2.8 1.9-7.4-1.9 1.9-1.9 2.8 1.9 6.5-2.9l-2.8-1.9 3.7-4.8c2.2 2.5 2.5 6.1 0.9 9 1.4 1.9-0.5 4.3 2.3 6.2-0.9-4.8 1.9-7.6 5.6-12.4l-4.6-3.8c8.4 6.6 15.8-12.8 14.9-17.6 6.5-3.3 7.4-14.7 18.6-23.3-1.9-1.9 1.9-2.9-2.8-6.7 0.5-0.8 1.3-1.3 2.1-1.5 0.9-0.2 1.8 0 2.5 0.5 14.1-20.3 29.8-39.3 46.9-57.1-1.6 0.7-3.5 0.3-4.6-1-0.5-2.4 0.9-2.4 2.8-1.9l-0.9 1c1 0.1 1.9-0.1 2.8-0.5 0.5 0 1.4 0.5 1.9 0.5 10.2-10.9 19-21.4 26.4-30.9 3.7-1 0 4.8 4.6 3.8 32.9-31.8 68.4-45 105.4-70.3 20.9 0 40.4-18.1 63.1-16.2 5.6-8.6 9.3-1.9 13-6.7 4.6-0.9 9.3-0.9 13.9-1.9 8.3-5.7 19.9-4.8 31.1-8.6 9.1-1.7 18.5-1.1 27.3 1.9l3.7-4.8c10.2 8.6 19.9-4.8 27.4 1.9l3.7-4.8 7.4 6.7c27.8-3.8 56.1 2.9 84.4 9.5 0.5-0.8 0.7-1.7 0.5-2.6-0.2-0.9-0.7-1.7-1.4-2.2 2.8-1.9 5.6 4.8 7.4 1.9 1.9 1.9-1.9 2.9 2.8 6.7 3.7-5.7-0.9-9.5 0.9-12.4-2.8-2.9-4.6 0-7.4-1.9-1.9 6.7-4.6 0-6.5 2.9l-0.9-4.8c1.9-2.9 5.6 3.8 4.6-1-2.8 0-1.9-1.9-1.9-3.8l4.6 1.9c0 1.8 0.7 3.5 1.9 4.8 3.7-5.7 9.3 3.8 13.9 2.9 1.3-0.8 2.1-2.3 1.9-3.8 0.9-0.5 1.9-0.5 2.8-1 0 1.9 1.4 3.3 0.9 5.7 3.7-1.9 5.6-1 7.4-2.9h1.7l-0.9 1c2.8 0.9 6.5 1.9 10.2 2.9v-0.1c0.3 1.3 1.7 1.1 1.7-0.4H645zM90.4 240.2c1.9 0.5 3.8 1.1 5.6 1.9-1.4 2.3-3.3-1.5-5.6-1.9z m562.8-281.4c-1.9-4.8-1.9-4.8 2.8-6.7-7.4 0-9.3 2.9-10.2 3.8 2.3 1.2 4.8 2.1 7.4 2.9z m-12.1 0c-2.4 2.7-6.4 3.1-9.3 1 4.6-5.7 9.3-5.7 9.3-1zM167.4 299.6c3.2 1.4 0.9 4.3 0.9 4.8-0.9 1-2.8 0-3.7-1l2.8-3.8z m11.2-50.9h0.1c4.6-1.1 2.6 1.9 8.2 5.2-0.9 7.6-17.6 13.3-9.3 15.2-3.7 0-11.1 6.7-6.5 10.5-0.7-0.5-1.6-0.7-2.5-0.5-0.9 0.2-1.6 0.7-2.1 1.5 2.5 7.6-0.6 16-7.4 20l4.6 3.8c2.8 1.9 2.8 1.9 0.9 4.8 2.6 0 5.1 0.7 7.4 1.9 6.5-7.6 7.4-15.2 2.8-19-2.8 2.9 1.9 2.9-1.9 7.6-2.8-1.9 0-4.8-0.9-9.5 1.9-2.9 4.6 3.8 4.6 3.8 3.7-9.9 12.1-20.4 6.5-29 9.3-1 5.6-7.6 12.1-15.2l-10.2-8.6c-7.4 2.8-1.8 6.6-6.4 7.5z m19.5-14.2c-2.8 1.9-5.6-3.8-9.3 1 2.8 1.9 4.6 0 7.4 1 0.9-0.1 0.9-1.1 1.9-2z m451.3-274.7c-0.9 1.9 4.6 1.9 0.9 5.7 1.9 1 2.8-1.9 3.7-3.8l-4.6-1.9z m-22.2-11.5c1.1 1.1 2.3 2.1 3.7 2.9-2.3 1-2.8 0-4.6-2.4 0.4-0.5 0.4-0.5 0.9-0.5z m-9.8-4.7c2.5 1 0 2.9-1.9 4.8-0.9 0-1.9-1-2.8-1.9 1-2 2.8-3.9 4.7-2.9z m-32-0.5V-55l-0.9 1.9-4.6-3.8v-1c0.9-0.9 2.7 1 5.5 1z m0-4.7v1.9c-1.9 0-3.7-1.9-1.9-3.8l1.9 1.9z m-7.4 7.1c0.7 2 2.6 3.2 4.6 2.9-2.8 2.9-5.6-1-6.5-3.8 0.9-0.1 0.9 0.9 1.9 0.9z m-26.4-14.8c0.5-5.7 1.9-9.5 7.4-6.7 0 0.9-0.9 2.9-0.9 3.8-2.1 1.4-4.3 2.3-6.5 2.9z m-47.8-1.1c0.6 0.6 1.3 0.9 2.1 1-0.5 0.6-1.3 1-2.1 1v-2z m-9.3 9.7l-3.7 4.8c1.8 1.4 8.3-0.9 3.7-4.8z m-126.1 22.2c4.6 4.8 7.4 6.7 9.3 3.8-2.8-6.5-7.5-6.5-9.3-3.6v-0.2zM165.1 96.4v0.2c0.5 4.8-8.4 1-4.6-4 0.4 2.3 2.4 3.9 4.6 3.8zM82.6 249.5c-2.8-1.9-0.9-4.8-0.9-9.5 1.9 1.9-1.9 7.6 2.8 6.7l-1.9 2.8z m-16.3 20.4v0.2c4.2 3.8 4.2-1 6.5 1.7l-3.7 4.8c-1.9-1.9-4.6-3.8-2.8-6.7z m-7.4 15.3c2.8 1.9 4.6 3.8 7.4 1.9-2.4-0.8-6.5-3.7-7.4-1.8v-0.1z m8.8 11.4v0.1c-2.8-3.8-9.7-4.8-4.6-6.8 2 1.8 3.6 4.1 4.6 6.7zM483.6 836.9c-0.6-0.7-0.9-1.4-0.7-2.2h-0.1c0 1.2 0 1.7 0.8 2.2l-0.4 0.1-0.5-0.5c1 1.9 1.4 3.7 2.9 4.2-1 0.5-2 1.1-2.9 1.9l-2.9 2.8-5.7-1.9c8.6-3.7-1-7.4 6.7-8.4-1.6-1-2.4-2.9-1.9-4.6-10.4-0.9-17.6 0-30.9-1.9-1 2.8-2.9 5.6-5.7 4.6-1 2.8 3.8 0.9 1 7.4-2.9-0.9 1.9-2.8-4.8-5.6 1-2.8 4.8-1.9 5.7-4.6-1.3 0.7-2.8 1.1-4.3 0.9l-2.4 5.6-5.7-2.8c0.9-1.7 2.4-2.9 4.3-3.3 1.2 0.5 2.5 0.8 3.8 0.9h0.5c-1.4-0.5-2.9-0.5-4.3 0-1.8-0.5-3.5-1.1-5.2-1.9l-2.9 6.5c3.8-9.3-16.7-10.2-21.5-8.4-4.8-5.5-15.6-2.7-27-11.1-1 2.8-2.9-1.9-5.7 4.6-1.6-1-2.4-2.9-1.9-4.6-23.9-7.6-47.1-17.1-69.5-28.3 0 0.9 1 2.8 0 4.6-3.8 0.9-1.9-2.8-2.9-6.5-13.3-6-26.2-11.6-37.6-16.3-1.9-4.6 4.8-1.9 2.9-6.5-40.5-23.2-63.8-53.4-98.6-80.8-5.2-15.3-21.4-26.9-30-42.7-0.5-0.5-0.5-0.9-1-1.4 0.5 0.5 1 0.9 1 1.4-0.4 2.8-1.4 5.5-2.9 7.9-2.9-1.9-4.8-5.6 0.9-10.2 0.4 0 0.7 0.2 1 0.5-1.8-3.4-3-7-3.8-10.7-8.6-3.7-2.9-8.4-9.5-11.1-1.9-4.6-3.8-8.4-5.7-13-7.1-6.5-10-17.1-16.7-27.4-3.8-8.8-7.6-17.1-6.7-27.4l-6.7-2.8c4.8-12.5-10.5-18.1-6.7-27.4l-6.7-2.8 3.8-9.3c-11.4-26-13.3-54.3-15.3-82.6-3.8-0.9-4.8 1.9-4.8 1.9-3.8-0.9 1.9-6.5-1-7.4 1-2.8 2.9 1.9 5.7-4.6-5.7-1.9-8.6 3.7-11.4 2.8-1 2.8 1.9 4.6 1 7.4 7.6-0.9 1.9 4.6 4.8 5.6l-4.8 1.9c-2.9-1.9 2.9-6.5-1.9-4.6 1.9 3.7-3.8 2.3-5.2 4.2v-2.3c-0.5 0.5-0.5 1.4 0 2.8l0.5-0.5c0.5 5.4 0.5 10.8 0 16.3l2.4-6 6.7 1.9-2.9 6.5c-2.9-0.9 2.9-5.6-3.8-8.4 1 4.6 0.5 7-2.4 6.5v3.7l9.5 3.7c1-2.8 5.7-4.6 3.8-9.3 6.7 2.8-3.8 9.3-3.8 9.3-2.9 5.6-1 10.2-1.9 13-9.5 3.7 1-3.7-6.7-2.8v-0.1c1.9 3.7-2.9 5.6-1.4 9.8 2 1.5 3.7 3.4 4.8 5.6 1.9 3.7-1 2.8 3.8 8.4 0.9 3.4 0.6 7-0.9 10.2-1.9 2.8 4.8 5.6 4.8 5.6l-2.9 5.6c-1 2.8 4.8 5.6 3.8 8.4-0.1 1.3-0.4 2.6-1 3.7 1-0.1 2.1 0.2 2.9 0.9 1.9 0.9 0 4.6-1.9 6.5 2.9 0.9 3.8-1.9 4.8-4.6 3.8 0.9-1 2.8 4.8 5.6-1 2.8-7.6 0.9-8.6 3.7 23.8 65 55.7 126.1 111.4 178.6 2.9 0.9 1.9 3.7 3.8 8.4 4.8 5.6 2.9-6.5 5.7-4.6 2.9 1.9-2.9 6.5-2.9 6.5 2.9 0.9 5.7 13 12.4 4.6 2.9 1.9-1.9 3.7-2.9 6.5 8.1 6 18.5 14.4 27.1 20.9 2.9 0.9 1-3.7 7.6-0.9 6.7 9.7 22.4 22.7 32.8 23.7-1 2.8 1.9 4.6 1 7.4 19.1 7 25.2 16.3 45.2 20.9 1-2.8-1.9-4.6-0.9-7.4 1.9-2.8 6.7 2.8 6.7 2.8-4.8 1.9-1.9 2.8-1 10.2 12.4 5.6 30 15.8 38.6 12.1 4.8 5.6 5.7 2.8 14.3 9.3 7.1-8.4 12.8 4.6 26.2 6.5l3.8-9.3c6.7 1.9 4.8 5.6 3.8 8.4 5.7 1.9 12.4 4.6 11.4-2.8 2.9 0.9 1.9 3.7 0 6.5 22.4 5.6 40 5.6 60 10.2 2.9-5.6 0-7.4 1-10.2h-1.9c-1.4-0.8-2.7-1.7-3.8-2.8v0.9c-1.4-2.2-1.7-4.9-1-7.4 1 3.7 5.7 6.5 10.5 10.2h1.9c-1 0-1-0.9-1.4-0.5 4.3-3.3 6.2-6 9.1-5.1-2.9 5.6-2.9 5.6-8.6 6.5 1 0 1.9 0 1.9 0.9-1 2.8-1 2.8-4.8 1.9 11.4 8.4 24.3 2.8 36.7 7.4l1.9-6.5c3.8-1.9 1.9 4.6 4.8 5.6 32.8-0.9 63.8-6.5 97.5-10.3l2.9-6.5c8.1 6.5 10 0 16.7 2.8 3.8-9.2 7.6-18.1 6.7-25.5-1 0-1.9-0.9-2.9-0.9 1.9 1.9-2.9 6.5 0 7.4-3.8 1.9-5.7-2.8-4.8-5.6-40 9.3-79 17.7-127.1 13l-1.9 6.5c-2.9-0.9 1.9-2.8-4.8-5.6-1.9 2.8-1.9 2.8-4.8 1.9-1 3.7 1.9 4.6 1.9 4.6l-4.2 0.8z m341.8-776.6c-0.1 0.1-0.1 0.1 0 0l-0.2 0.1c1.3 0.1 2.6-0.3 3.5-1.2 0.9-0.9 1.4-2.2 1.3-3.4-4.7-4.7-2.8 2.6-4.6 4.5 0.2 0 0.3 0.1 0.5 0.1h0.1-1.4c-1.4-1.5-0.5-0.3 0.8-0.1z m53.7 67.4c6.1 2.8 4.7-1.9 8.6-3.7-1.9-3.7-1-7.4-3.8-8.4l-4.8 12.1z m-193.7-137l-0.2 0.1c4.8-4.2 1.9-6-0.8-8.5l-3.8 4.6 4.8 3.8zM879.2 110l-0.2 0.1c1.9 4.6 1.9-2.8 3.1-6.6l-6.7-2.8-2.9 6.5 6.7 2.8zM680.5-29.3c-1.6 3.1-1.2 6.7 1 9.3-0.1-4.6 1.8-7.4-1-9.3z m175.7 339.8c1.9 4.7-4.8 12.1-8.6 21.4 4.9 20.1 7.8 40.6 8.6 61.3L261.4 158.8c5-4.2 9.2-9.3 12.4-14.9 14.3-1.9 26.2-20.9 39.5-27.4 1.9-2.8 1.9-2.8-1-4.6 6.2 1.9 12.9-5.6 17.6-6.5 31.9-24.6 62.9-30.2 96.7-40.4-0.9-0.9-1.9-1.9-2.9-1.9 1.9 0 3.8-0.9 5.7-0.9 1 0.9 1.9 2.8 3.8 4.6 9-5.6 18.5-1.9 25.2-9.3 3 3 7.9 3.4 11.4 0.9 3.8 0 5.7-0.9 8.6-0.9v1.9c9.5-2.3 19.3-3.3 29-2.8h7.3c1.4 0.8 3.1 1.2 4.8 0.9v-0.9h1.9c0 0.9 0 1.9 1 1.9 7.6 0 13.8 1.9 24.3 2.8 0.5-0.3 0.7-0.8 0.7-1.4 0-0.6-0.3-1.1-0.7-1.4h1.9c1.9 0.9-1.9 2.8-2.9 5.6 7.6 0 13.3 1.9 19.1-2.8 2.9 1.9-1.9 3.7-2.9 6.5 6.8-0.6 13.7-0.2 20.5 0.9 0.8-1.8 1.1-3.7 1-5.6h1.9c0.2 2.9 1.6 5.5 3.8 7.4 4.3-1.9 10 0 16.7 2.8l1.9-4.6c1 0 1.9 0.9 2.9 0.9 7.6 7.4 19.5 9.3 33.8 14.9-1.6-1-2.3-2.9-1.9-4.6 1.6 1 2.4 2.9 1.9 4.6 23.4 5.1 37.6 21.8 54.3 24.6 1.9 3.7 5.7 13 8.6 6.5 3.8 8.4 15.7 13 20.5 18.6 4.8 5.6 2.9-5.6 5.7-4.6-1.4 6 10.5 18.1 15.3 16.3 2.9 1.9-1.9 3.7-2.9 6.5 17.1 10.2 26.2 31.1 40.5 40.4 3.3 7.9 6.2 19 16.7 20l-1 2.8c19.6 28.9 34.3 60.7 43.5 94.1 3 1.7 9.6 3.6 10.6 0.8z m-22.4-82.1l6.7 1.9-2.9 6.5c-2.9-1-1-7.5-3.8-8.4z m-9.6-3.8c1-2.8 7.6 0 9.5-3.7l-2.9 6.5c-3.7-1.8-1.8-4.6-6.6-2.8z m-20.5-28.7c4.8 5.6 4.8-1.9 5.7-4.6-1.8-4.4-3.7 1.4-5.7 4.6zM689.9 87.2l2.4-6c-0.9 2.4-5.2 4.3-2.4 6z m-46.2-20.4c1.8 0 3.5 0.7 4.8 1.9-1 0.9-3.8-0.9-5.7-0.9 0.5-0.1 0.9-0.5 0.9-1z m-177.6-18.1c1 1 2 2 1.9 2.8-1 0.1-2.1-0.2-2.9-0.9 0 0.9-1 0.9 0 0-1 0.9-1 0-1-0.9 0 0.5 0.4 0.9 1 0.9l1-1.9z m-45.2 7.9l-0.1 0.2c1.1 0 1.1 1.3 2.1 0.7 0 0.9-1 2.8-1 3.7-0.8-1.4-1.1-3-1-4.6z m-1-3.5l3.8 1.6c-1 1.1-1.9 0-3.8 0v-1.6z m-46.7 14.4c1.9 0 1.9 0 1.9 1-1 0-1.9 1-2.9 1l1-2zM249.9 156c4.8-0.9 6.7-7.4 11.4-2.8l-2.9 2.8-1.9-0.9-1 1.9c-1.8 0.1-3.8-0.2-5.6-1z m617.7 212.6v-4.6l1.9 2.8c1 1.8-0.9 1.8-1.9 1.8z m1 18.1v-4.6l2.9 2.8c-1 2.8-2 2.8-2.9 1.8z m-6.7-63.1l0.3 0.1c8.6-3.7 4.8-12.1 9.5-18.1l-6.7-2.8c3.8-8.8-5.7-12.5-1-24.6-10.5-11.1-10.5-28.3-20-39.4l2.9-6.5c-10.5-0.9-4.8-15.8-13.3-12.1-0.5-1.2-0.5-2.6 0-3.9 0.5-1.2 1.6-2.2 2.9-2.7-10.5-0.9-6.7-10.2-9.5-11.1l-2.9 6.5c1.9-3.7 1-11.1-6.7-10.2-1.9-4.6 3.8 0.9 4.8-1.9-4.8-15.8-20.5-29.2-29-43.2-3.8-0.9-4.8 1.9-4.8 1.9-1-7-11-14.4-17.6-17.2-10.5-17.7-33.8-30.2-52.9-45-3.8-0.9-4.8 1.9-4.8 1.9 0-7.4-14.3-9.3-19.1-14.9-19.1-7-32.8-16.3-45.2-20.9-7.1 0.9-15.7-2.8-22.4-5.6l-1 2.8c-1.9 0-2.9-0.9-3.8-0.9 0-1.9 0-2.8-1.9-3.7-1.9-0.9-3.8 0-5.7 1.9-5.7-1.9-10.5-2.8-15.3-4.6l-0.9 0.9c-22.4-6.5-49.1-4.7-70.5-10.2-1 2.8-2.9-1.9-5.7 4.6-2.9-0.9 1.9-2.8-4.8-5.6-4.9 1.7-10.2 2-15.3 0.9-1.2 1.3-1.9 2.9-1.9 4.6-1.9 0-2.9-0.9-4.8-1.9 0.1 0.8-0.2 1.5-0.7 2.1-0.6 0.5-1.4 0.8-2.1 0.7v-1.9c-2.9-1.9-3.8 1.9-10.5-0.9-1.9 2.8-4.8 1.9-2.9 5.6-1.9-1.9-3.8-5.6-5.7-6.5-3.8 4.6-12.4-0.9-16.2 3.7-3.4 1.2-6.6 2.7-9.5 4.7-1 0-1-0.9-1.9-0.9l-0.9 0.9c0-0.9 0-1.9-1.9-2.8-1 3.7-3.8 1.9-6.7 8.4l-6.7-2.8c0.9-2.8 2.9 1.9 5.7-4.6-4.8 1.9-11 2.8-15.7 4.6-2.4-0.5-3.8 1.9-6.7 0.9-1.9 1.9-1.9 2.8-1.9 3.7 0-0.9-1-0.9-1.9-1.9-1 2.8-2.9-1.9-5.7 4.6 0 0.5 0.4 0.9 1 0.9-2.9 0.9-6.7 1.9-9.5 2.8-1-0.9-1-1.4-1.4-1.9-1 0.5-2.2 0.8-3.3 0.9l1-2.8c1 0 1.4 0 1.9 0.5-0.5-0.9 0-1.9 0.5-3.2 0.5 0.5 1 0.5 1.4 0.9 0.3-0.7 0.3-1.6-0.1-2.3-0.4-0.7-1-1.2-1.8-1.4v1.4l-5.7-2.3c-1 3.7 1.9 4.6 1.9 4.6-1.9 2.8-7.6 0-6.7-2.8-2.9-0.9-1 2.8-1.9 5.6 0.2-1.5-0.6-3-1.9-3.7-5.2 4.6-15.7 3.7-24.3 14.9 2.3 1 4.6 2.3 6.7 3.7-5.2 2.8-11 5.6-16.7 9.3-2.9-2.8-4.8 0-7.6-1.9-10.5 12.5-24.3 9.2-34.7 26.4l4.8 3.7c-1.9 2.8-4.8-3.7-4.8-3.7 2.9 6.5-6.7 2.8 0.9 9.3-1.9 1.9-2.9-1.9-6.7 2.8-1.9-1.9 1.9-2.8-2.9-6.5-8.1 5.1-21.5 15.3-20.5 24.6-4.8 4.6-6.7 2.8-9.5 0.9-4.8 4.6 6.7 1.9 2.9 6.5-2.9 1.9-4.8 0-7.6-1.9-4.3 4.2-19.5 13.5-16.7 20-1.9-1.9-6.7 2.8-8.6 5.6l2.9 1.9c-1 1.4-1 3.2 0 4.6l1.9-2.8-1.9-1.9c1-0.9 1-1.9 1.9-2.8 0 2.5 1 4.8 2.9 6.5 3.3-4.5 7.1-8.5 11.4-12.1l-1.9 5.6 607.2 240c-0.7 15.4-2.3 30.7-4.8 46 7.6 0 4.8 5.6 11.4 8.4 4.4-25.1 6-50.6 4.8-76.1 1-1.3 2.6-2.1 4.3-2.1 1.7 0 3.3 0.8 4.3 2.1l4.8-6.5c-0.8-0.5-1.7-0.7-2.6-0.5-0.9 0.2-1.7 0.7-2.2 1.4-2.9-1.9 1-6.5 3.8-4.6 0.1 0 0.3 0 0.3-0.1 0.1-0.1 0.1-0.2 0.1-0.3l0.5 0.5c-2.9-6.5 1-15.3-7.6-26.4-2.9 2.8-4.8 3.7-6.7 5.6 0-3.7-1-7.4-1-11.2 4.6-19.1 2.7-23.8-4.9-22.8zM48 386.7c3.1 1.6 4.6 5.1 3.8 8.4-6.6-1.9-8.5-6.5-3.8-8.4z m849.5-234.4l2.9 1.9 2.9-6.5c-4.8-5.6-6.7-2.8-5.8 4.6zM49.9 408.6c-1.7-0.6-3.6-0.5-5.2 0.3s-2.8 2.2-3.4 3.9c2.9 0.9 3.8-1.9 5.7-1.9 1.9 4.6-1 10.2-3.8 9.3 0.6 2.9 0.9 5.9 1 8.8 1.4-2.3 6.2-3.7 6.7-5.6-5.7-2.8 0.9-10.2-1-14.8zM44.2 448l0.9-0.9-0.9 0.9z m12.7 74.8c0 1.8-1.7 0 0 0zM637.3 836.7l-0.2-0.2c6.7-3.7 4.8-5.1-2.7-6.3l-1.9 2.8 4.8 3.7z m-11.9-20c0.8-1.3 2.3-2.1 3.8-1.9 0.8 0.8-1.1 3.6-4 1.7l0.2 0.2zM483.5 830.1c3 0.5 0.7 2.8 0 4.6-0.7-1.5-0.7-3.1 0-4.6zM510-64c-1.7 0-1.7-1.7 0 0z m244.5 76.1c-1.7-3-1.3-6.7 1-9.3l-6.7-2.8c-2.9 5.6 3.8 8.4-1.9 13 6.7 1.9 4.7-1.8 7.6-0.9z m-68.3-33.9c6.7 2.8 3.8-9.3 8.6-2.8-1.9-4.6-8.6-6.5-5.7-13-2.9-1.9-4.8 1.9-5.7 4.6 3.8 2.5 5.1 7.4 2.8 11.2z m15.1-0.9c1-2.8-1.9-4.6 2.9-6.5-1.9-3.7-1 3.7-2.9-0.9l-2.9 6.5 2.9 0.9z m-10.4 1.9c7.6 1.9 0.9 9.3-1.9 7.4 2.9-2.8 0-4.6 1.9-7.4z m118.6 75.1c2.2 1.9 6.2 0 10.5 0.9 0.8-3.3-0.7-6.7-3.8-8.4l-1 2.8-6.7-2.8c-0.9 2.9-0.9 2.9 1 7.5z m67.6 333.9c1.7 1.7 1.7 0 0 0z m-4.8 0.4c1-1.9 2.9-0.9 4.8 0-0.9 0.9-1.9 1.8-4.8 0z m-24.7-307.8l5.7 2.8 2.9-6.5c-3.5-0.8-7 0.7-8.6 3.7z m-453.1-18.1c-0.9-0.6-1.7-1.3-1.7-1.9 0-0.6 1.7 0.6 1.7 1.9z m500.7 584c0.5-2.3 1-2.3 4.3-3.2-1.3 1.2-2.7 2.3-4.3 3.2z m31.4-20c-6.2 3.7-10.1-7.7-15.3-7.4l-8.6 10.2c2.9 1.9 4.8 4.6 1.9 5.6-1.9 2.8-1.9-1.9-4.8-3.7-1.6 3.5-1.9 7.4-1 11.2-2.4-0.9-4.3 0.5-6.7-0.9 0 3.7-1 6.5 0 8.4l0.5-0.5c-0.4 0.4-0.5 0.9-0.5 1.4-0.5 0-1-0.4-1-0.9-2.8 2.7-5 5.8-6.7 9.3h1c-0.5 0-1 0.4-1 0.9 0.5 0 1-0.4 1-0.9 2.9 1.9 4.8 3.7 7.6 5.6-3.8 0-6.7 0.9-6.7 3.7 1.9 0.9 4.8-2.8 8.6 0l1.9-1.9c1.4 1 3.3 1 4.8 0l-4.8-3.7c5.7 0.9 10.5-6.5 16.2-12.1-1-0.1-1.8-0.9-1.9-1.9l2.9 1.9c1.7-1.8 3.6-3.4 5.7-4.6-1.8-1.6-4.5-2-6.7-0.9 3.1-3.3 5.7-7.1 7.6-11.1 1.9 1.9-1.9 2.8 2.9 6.5 3.5-4.2 4.5-9.4 3.1-14.2zM516.5-62.1c-1.7-1.7 0-1.7 0 0zM79.9 535.4l-6.7-2.8c2.9-5.6 7.7 0 6.7 2.8zM323.1 802.6a5 5 0 0 1 0 3.8c-0.5 1.2-1.6 2.2-2.9 2.7 6.9 1.9 7.8-8.4 3-6.5h-0.1z m166.8 38.6c0-0.5-0.4-0.9-1-0.9 1.9 0 3.8 0 2.9-2.8l2.9 0.9c-0.9 1.7-2.8 2.8-4.8 2.8z m30 7.4c2-6.5-1.9-4.6-1-7.4l6.7 2.8c-0.9 2.7-2.8 5.5-5.7 4.6z m15.7 2.8c-1.9-0.9-0.9-5.6-1-7.4 3.9 1.8 2 4.6 1 7.4z m8.6-12.1c-2.9 2.8-1.9 11.2-5.7 6.5 1.6-2.4 3.6-4.6 5.7-6.5z"  horiz-adv-x="1024" />

    
    <glyph glyph-name="icon_banklogo" unicode="&#58964;" d="M164.6 535.5h694.9v62.7c0 33.2-26.9 60.1-60.1 60.1H224.7c-33.2 0-60.1-26.9-60.1-60.1v-62.7z m0-125.4v-240.3c0-33.2 26.9-60.1 60.1-60.1h574.7c33.2 0 60.1 26.9 60.1 60.1V410.1H164.6z m60.1 303h574.7c63.5 0 114.9-51.5 114.9-114.9v-428.4c0-63.5-51.5-114.9-114.9-114.9H224.7c-63.5 0-114.9 51.5-114.9 114.9V598.2c-0.1 63.5 51.4 114.9 114.9 114.9z m28.7-480.6h143.7c15.9 0 28.7-12.9 28.7-28.7v-1.7c0-15.9-12.9-28.7-28.7-28.7H253.4c-15.9 0-28.7 12.9-28.7 28.7v1.7c0 15.8 12.8 28.7 28.7 28.7z"  horiz-adv-x="1024" />

    
    <glyph glyph-name="icon_arrow" unicode="&#58972;" d="M742.1 349l-1.2-1.2-382.4-382.5c-18.7-18.7-49.1-18.7-67.9 0-18.7 18.7-18.7 49.1 0 67.9l351.1 351.1-350.9 350.9c-18.7 18.7-18.7 48.9 0 67.5s48.9 18.7 67.5 0l385-385c18.7-18.7 18.7-48.9 0-67.5l-1.2-1.2z"  horiz-adv-x="1024" />

    
    <glyph glyph-name="icon_shouqi_blue" unicode="&#58983;" d="M513.5 607.8c-8.2 0-16.4-3.1-22.6-9.4L157.2 264.7c-21.7-21.7-21.7-56.8 0-78.5 21.7-21.7 56.8-21.7 78.5 0l277.2 277.2L787.4 189c21.8-21.8 57.3-21.8 79.1 0 21.8 21.8 21.8 57.3 0 79.1L536.2 598.4c-6.3 6.3-14.5 9.4-22.7 9.4z"  horiz-adv-x="1024" />

    
    <glyph glyph-name="icon_page_jingshi" unicode="&#58984;" d="M613.5 885.9c8.7-1.7 14.3-10.2 12.6-18.9-1.7-8.7-10.2-14.3-18.9-12.6-31.1 6.3-62.9 9.4-95.2 9.4C247 863.9 32.1 649 32.1 384S247-95.9 512-95.9 991.9 119 991.9 384c0 127.3-49.7 246.6-137 335.8-6.2 6.3-6.1 16.5 0.2 22.7 6.3 6.2 16.5 6.1 22.7-0.2C970.9 647.2 1024 519.7 1024 384c0-282.8-229.2-512-512-512S0 101.2 0 384 229.2 896 512 896c34.4 0 68.3-3.4 101.5-10.1z m-119.7-678c0 10.6 8.6 19.3 19.3 19.3 10.6 0 19.3-8.6 19.3-19.3v-46.7c0-10.6-8.6-19.3-19.3-19.3-10.6 0-19.3 8.6-19.3 19.3v46.7z m0 408.6c0 10.6 8.6 19.3 19.3 19.3 10.6 0 19.3-8.6 19.3-19.3v-303.4c0-10.6-8.6-19.3-19.3-19.3-10.6 0-19.3 8.6-19.3 19.3V616.5z"  horiz-adv-x="1024" />

    
    <glyph glyph-name="icon_gouxuan3" unicode="&#58986;" d="M512 0c-212.1 0-384 171.9-384 384s171.9 384 384 384 384-171.9 384-384-171.9-384-384-384z m-52.3 328.3l-135.2 84.2-25.9-30.3 179-175.9c30.7 76.3 128.4 225.3 247.7 331.1l-10.9 24.5c-129.8-77.2-212.5-185-254.7-233.6z"  horiz-adv-x="1024" />

    
    <glyph glyph-name="icon_duandaingouxuan_lanse" unicode="&#58987;" d="M512 725.3c18.2 0 33-14.8 33-33s-14.8-33-33-33C360 659.3 236.7 536 236.7 384S360 108.7 512 108.7 787.3 232 787.3 384c0 18.2 14.8 33 33 33s33-14.8 33-33c0-188.5-152.8-341.3-341.3-341.3S170.7 195.5 170.7 384 323.5 725.3 512 725.3zM360.5 429.8c13.6 13.6 35.7 13.6 49.3 0l84.6-84.6 278.4 278.4c13.6 13.6 35.7 13.6 49.3 0 13.6-13.6 13.6-35.7 0-49.3L509.5 261.7c-8.3-8.3-21.8-8.3-30.2 0L360.5 380.5c-13.6 13.6-13.6 35.7 0 49.3z"  horiz-adv-x="1024" />

    
    <glyph glyph-name="icon_zhankai_blue" unicode="&#58989;" d="M513.5 160.2c-8.2 0-16.4 3.1-22.6 9.4L157.2 503.3c-21.7 21.7-21.7 56.8 0 78.5 21.7 21.7 56.8 21.7 78.5 0l277.2-277.2L787.4 579c21.8 21.8 57.3 21.8 79.1 0 21.8-21.8 21.8-57.3 0-79.1L536.2 169.6c-6.3-6.3-14.5-9.4-22.7-9.4z"  horiz-adv-x="1024" />

    
    <glyph glyph-name="icon_tianjia" unicode="&#58992;" d="M464 432V736c0 17.7 14.3 32 32 32h32c17.7 0 32-14.3 32-32v-304h304c17.7 0 32-14.3 32-32v-32c0-17.7-14.3-32-32-32H560v-304c0-17.7-14.3-32-32-32h-32c-17.7 0-32 14.3-32 32V336H160c-17.7 0-32 14.3-32 32v32c0 17.7 14.3 32 32 32h304z"  horiz-adv-x="1024" />

    
    <glyph glyph-name="icon_weigouxuan3" unicode="&#58993;" d="M512 42.700000000000045c188.5 0 341.3 152.8 341.3 341.3S700.5 725.3 512 725.3 170.7 572.5 170.7 384 323.5 42.700000000000045 512 42.700000000000045z m0-42.7c-212.1 0-384 171.9-384 384s171.9 384 384 384 384-171.9 384-384-171.9-384-384-384z"  horiz-adv-x="1024" />

    
    <glyph glyph-name="icon_bukejian" unicode="&#58965;" d="M848.4 432.6c7.3 10.4 4.9 24.2-4.9 32.2-11 8.1-25.7 5.8-34.2-4.6-1.2-1.2-136.9-150.8-297-150.8-156.4 0-298.2 150.8-299.4 152-8.6 9.2-24.4 10.4-34.2 2.3-9.8-8.1-11-23-2.4-32.2 2.4-3.5 31.8-34.5 78.2-67.9l-62.3-61c-9.8-9.2-8.6-24.2 1.2-32.2 2.4-4.6 8.6-6.9 14.7-6.9s12.2 2.3 17.1 6.9l67.2 64.5c31.8-20.7 69.7-40.3 111.2-54.1L377.9 200c-3.7-12.7 3.7-25.3 17.1-28.8h7.3c11 0 20.8 6.9 23.2 17.3l25.7 80.6c19.6-3.5 40.3-5.8 61.1-5.8 20.8 0 41.6 2.3 61.1 5.8l25.7-79.4c2.4-10.4 13.4-17.3 23.2-17.3 2.4 0 4.9 0 6.1 1.2 13.4 3.5 20.8 16.1 17.1 28.8l-25.7 79.4c41.6 13.8 79.4 33.4 111.2 54.1l66-63.3c4.9-4.6 11-6.9 17.1-6.9 6.1 0 12.2 2.3 17.1 6.9 9.8 9.2 9.8 23 1.2 32.2l-63.6 61c50.3 33.4 79.6 66.8 79.6 66.8z"  horiz-adv-x="1024" />

    
    <glyph glyph-name="icon_guanbi" unicode="&#58966;" d="M512 452.8l248.9 248.9c18.7 18.7 49.1 18.7 67.9 0 18.7-18.7 18.7-49.1 0-67.9l-249-248.9 249-248.9c18.7-18.7 18.7-49.1 0-67.9-18.7-18.7-49.1-18.7-67.9 0L512 317.1 263.1 68.2c-18.7-18.7-49.1-18.7-67.9 0-18.7 18.7-18.7 49.1 0 67.9L444.1 385 195.2 633.8c-18.7 18.7-18.7 49.1 0 67.9s49.1 18.7 67.9 0L512 452.8z"  horiz-adv-x="1024" />

    
    <glyph glyph-name="icon_page_chenggong" unicode="&#58967;" d="M512 896C229.2 896 0 666.8 0 384s229.2-512 512-512 512 229.2 512 512S794.8 896 512 896zM397.6 103.2c-15.1 106.3-167.2 231.4-167.2 231.4l79.8 65.2 108.5-185.2C650.3 576 773.1 588.3 773.1 588.3c-22.2-78.1 45.3-127.5 45.3-127.5-221.5-29.5-420.8-357.6-420.8-357.6z"  horiz-adv-x="1024" />

    
    <glyph glyph-name="icon_mima" unicode="&#58968;" d="M670.5 479.5V522c0 97-68.4 175.9-152.4 175.9h-12.2c-84 0-152.4-78.9-152.4-175.9v-42.5h317z m-343.4 0V522c0 112.1 80.2 203.3 178.8 203.3h12.2c98.6 0 178.8-91.2 178.8-203.3v-42.5h26.4c36.4 0 66-30.6 66-68.2V111c0.1-37.7-29.6-68.3-66-68.3H300.7c-36.4 0-66 30.6-66 68.2V411.3c0 37.7 29.7 68.2 66 68.2h26.4zM512 138.3h-0.2c-7.3 0.2-13.1 6.3-13 13.9 0.5 31.6 0.9 66 0.7 82.9-36.2 6.9-66.7 42.2-66.7 80.7 0 45.1 35.6 81.9 79.2 81.9 43.7 0 79.2-36.7 79.2-81.9 0-25.8-11.9-50.3-31.9-65.7-5.9-4.5-14.2-3.3-18.5 2.8-4.4 6-3.2 14.6 2.7 19.1 13.5 10.4 21.3 26.4 21.3 43.8 0 30.1-23.7 54.6-52.8 54.6-29.1 0-52.8-24.5-52.8-54.6 0-28.1 25.7-54.6 52.8-54.6 3.5 0 7-1.5 9.4-4.1 4.9-5.2 5.5-5.7 3.8-105.4-0.1-7.5-6-13.4-13.2-13.4zM300.7 452.2c-21.8 0-39.6-18.4-39.6-40.9V111c0-22.6 17.8-40.9 39.6-40.9h422.6c21.8 0 39.6 18.4 39.6 40.9V411.3c0 22.6-17.8 40.9-39.6 40.9H300.7z"  horiz-adv-x="1024" />

    
    <glyph glyph-name="icon_shoujihao" unicode="&#58969;" d="M640 746.7c70.6 0 128-62 128-138.2v-449c0-76.2-57.4-138.2-128-138.2H384c-70.6 0-128 62-128 138.2v449c0 76.2 57.4 138.2 128 138.2h256z m-256-34.6c-53 0-96-46.4-96-103.6v-345.4h448V608.5c0 57.2-43 103.6-96 103.6H384z m352-552.6v69.1H288v-69.1c0-57.2 43-103.6 96-103.6h256c53 0 96 46.4 96 103.6zM459.8 626.8c-9.5 0-17.3 7.7-17.3 17.3 0 9.5 7.8 17.3 17.3 17.3h103.9c9.5 0 17.3-7.7 17.3-17.3 0-9.5-7.8-17.3-17.3-17.3H459.8z m52-500.4c-19.1 0-34.6 15.4-34.6 34.5s15.5 34.5 34.6 34.5 34.6-15.4 34.6-34.5c0-19-15.5-34.5-34.6-34.5z"  horiz-adv-x="1024" />

    
    <glyph glyph-name="icon_weigouxuan" unicode="&#58970;" d="M256 704c-35.3 0-64-28.7-64-64v-512c0-35.3 28.7-64 64-64h512c35.3 0 64 28.7 64 64V640c0 35.3-28.7 64-64 64H256z m0 64h512c70.7 0 128-57.3 128-128v-512c0-70.7-57.3-128-128-128H256c-70.7 0-128 57.3-128 128V640c0 70.7 57.3 128 128 128z"  horiz-adv-x="1024" />

    
    <glyph glyph-name="icon_kejian" unicode="&#58971;" d="M605.6 444.4c0 2.6-0.9 4.9-1.6 7.6 13.5-20.1 20.8-43.9 20.8-68.2 0-65.5-50.4-118.9-112.7-118.9-62.4 0-112.7 53.4-112.7 118.9 0 65.9 50.4 119.2 112.7 119.2 23.9 0 46.3-8.2 64.5-21.7-2.5 0.3-4.7 1.3-7.3 1.3-20.1 0-36.5-17.1-36.5-38.2 0-21.4 16.4-38.5 36.5-38.5 20.2 0 36.3 17.1 36.3 38.5z m-93.3 126.3c-119.4 0-247.6-77.1-306.8-181.1l-3.4-5.6 3.9-6.4c58.9-103.1 187.2-180.2 306.3-180.2 119.1 0 247.3 77.1 306.8 180.5l3.5 6.1-3.5 6.1c-59.3 103.5-187.5 180.6-306.8 180.6z m353.1-154.1l18.7-32.7-12.7-22.1-6-10.6C796.5 231.6 650.9 144 512.3 144 373.7 144 228 231.7 160 350.6L139.9 384l8.2 13.7 5.5 9.2 5.8 9.6C227.8 536.3 373.5 624 512.3 624c138.8 0 284.4-87.5 353.1-207.4z"  horiz-adv-x="1024" />

    
    <glyph glyph-name="icon_tuxingyanzhengma" unicode="&#58973;" d="M230.4 611.8v-271.5c0-122.6 172.8-280.6 281.5-280.6h1.9c108.9 1.8 279.7 158.7 279.7 280.6l-0.1 271.5-12.4 0.2c-31.3 0-88 8.2-141.6 29.1-31.5 12.2-60.4 26.1-86.2 40.6-15.7 8.8-27.2 16.1-33.1 20.2l-8.1 5.6-8.2-5.7c-4.9-3.4-13.6-9-26-16.1-20.4-11.8-43.5-23.6-68.8-34.5-8-3.5-16.2-6.8-24.4-10-53.7-20.9-110.3-29.2-141.3-29.2l-12.9-0.2z m-34.1-271.4V616.6c0 16.2 13.4 29 29.6 29.3l17.2 0.3c5.6 0 21.6 1.2 39.8 3.8 30.2 4.4 60.7 11.8 89.3 23 7.8 3 15.6 6.2 23.2 9.5 24.1 10.4 46 21.6 65.3 32.8 11.6 6.7 19.7 11.9 23.8 14.8l10 7c5.1 3.5 11.2 5.4 17.3 5.4 6.2 0 12.4-1.8 17.5-5.4l10.2-7.1c5.1-3.6 15.7-10.3 30.4-18.5 24.5-13.7 52-26.9 81.8-38.6 28.6-11.1 59.1-18.6 89.4-23 18.2-2.6 34.2-3.8 40.1-3.8l16.8-0.3c16.2-0.3 29.5-13.1 29.5-29.3l0.1-276.2c0-142.2-188.8-314.8-315.8-314.8-11.6 0-27.2 2.3-46.8 6.8-122.6 28.6-268.7 182.6-268.7 308.1zM485 297c-3.5-3.5-8.2-5.4-13.2-5.4s-9.8 2-13.3 5.4l-68.9 68.2c-7.3 7.2-7.3 18.9 0 26.1 3.5 3.5 8.3 5.4 13.2 5.4 5 0 9.8-2 13.2-5.4l52.7-52.1h6L607.9 471c3.5 3.5 8.3 5.5 13.2 5.5 5 0 9.7-2 13.2-5.4 7.3-7.2 7.3-18.9 0-26.1L485 297z"  horiz-adv-x="1024" />

    
    <glyph glyph-name="icon_yinhangka" unicode="&#58977;" d="M225 176.8c-14.3 0-25.9 12-25.9 25.9 0 14.3 11.8 25.9 25.9 25.9h209c14.3 0 25.9-12 25.9-25.9 0-14.3-11.8-25.9-25.9-25.9H225z m668.6 569.9c48.6 0 87.7-40.8 87.7-91.1v-543.1c0-50.2-39.4-91.1-87.7-91.1H130.4c-48.6 0-87.7 40.8-87.7 91.1V655.6c0 50.1 39.4 91.1 87.7 91.1h763.2z m29.1-634.2v332H101.3v-332c0-17.1 13-30.7 29-30.7h763.3c15.8 0 29.1 13.8 29.1 30.7z m0 452.8v90.2c0 17-13 30.6-29 30.6H130.4c-15.8 0-29-13.8-29-30.6v-90.2h821.3z"  horiz-adv-x="1024" />

    
    <glyph glyph-name="icon_shenfenzheng" unicode="&#58978;" d="M101.3 133.6v-21.1c0-17.1 13-30.7 29-30.7h763.3c15.8 0 29 13.8 29 30.7V655c0 16.9-13.3 30.7-29 30.7H130.4c-16 0-29-13.6-29-30.7v-521.4z m792.3 613.1c48.6 0 87.7-40.8 87.7-91.1v-543.1c0-50.2-39.4-91.1-87.7-91.1H130.4c-48.6 0-87.7 40.8-87.7 91.1V655.6c0 50.1 39.4 91.1 87.7 91.1h763.2zM590 487.6c-14.3 0-25.9 12-25.9 25.9 0 14.3 11.8 25.9 25.9 25.9h209c14.3 0 25.9-12 25.9-25.9 0-14.3-11.8-25.9-25.9-25.9H590z m-4.5-77.7h87.7c11.8 0 21.3-9.6 21.3-21.3v-9.1c0-11.8-9.6-21.3-21.3-21.3h-87.7c-11.8 0-21.3 9.6-21.3 21.3v9.1c-0.1 11.8 9.5 21.3 21.3 21.3z m0-129.5h139.9c11.8 0 21.3-9.6 21.3-21.3v-9.1c0-11.8-9.6-21.3-21.3-21.3H585.5c-11.8 0-21.3 9.6-21.3 21.3v9c-0.1 11.8 9.5 21.4 21.3 21.4z m-256-77.7c-94.8 0-182.5 6.1-182.5 50.5 0 35.4 57.8 75.4 128.8 89 6.2 1.4 11.4 6.4 13.3 13 2.1 7.2 0 14.7-5.8 20.7-0.2 0.2-0.4 0.5-0.6 0.7-22.5 22.2-37 59.2-37 94.7 0 55.4 34.4 94.1 83.7 94.1 49.3 0 83.8-38.7 83.8-94.1 0-36.1-15-73.6-38.1-95.7-5.5-5.8-7.6-13.2-5.5-20.3 1.9-6.5 7.1-11.4 13.4-13 71-13.5 128.9-53.4 128.9-89 0.1-44.5-87.6-50.6-182.4-50.6z"  horiz-adv-x="1024" />

    
    <glyph glyph-name="icon_navbar_fanhui" unicode="&#58982;" d="M387.2 384l350.7-350.7c18.7-18.7 18.7-49.1 0-67.9s-49.1-18.7-67.9 0L285.4 350.1c-18.7 18.7-18.7 49.1 0 67.9L670.1 802.6c18.7 18.7 49.1 18.7 67.9 0s18.7-49.1 0-67.9L387.2 384z"  horiz-adv-x="1024" />

    
    <glyph glyph-name="icon_shanchu" unicode="&#58994;" d="M810.7 383.5c-0.2-120.8-73.2-229.6-184.9-275.6-111.7-46-240.2-20.2-325.4 65.5-85.2 85.6-110.5 214.2-64 325.7S392 683 512.8 682.7c164.9-0.5 298.2-134.4 297.9-299.2z m-351.1 0.8c-3.3-2.7-5.1-4-6.6-5.5-24.7-24.7-49.4-49.3-74.1-74-3.8-3-6-7.6-6-12.4s2.2-9.4 6-12.4c9.5-9.5 19-19 28.5-28.4 3-4.2 7.9-6.6 13-6.6 5.2 0 10 2.5 13 6.6l73.7 73.6c1.5 1.5 3.1 2.9 4.9 4.6 1.8-1.7 3.4-3.1 4.9-4.6l74.1-74.1c3-3.9 7.7-6.2 12.6-6.2 4.9 0 9.6 2.3 12.6 6.2 9.3 9.2 18.4 18.4 27.6 27.6 4.5 3.1 7.2 8.2 7.2 13.7s-2.7 10.6-7.2 13.7l-73.2 73.2c-1.5 1.5-2.9 3.1-5.3 5.7 1.9 1.2 3.8 2.5 5.5 4 24.5 24.4 48.9 48.8 73.2 73.2 4.4 3.1 7 8.1 7 13.5s-2.6 10.4-7 13.5c-9.1 9.1-18.1 18.2-27.2 27.2-3 4.3-8 6.8-13.2 6.8-5.3 0-10.2-2.5-13.2-6.8l-73.7-73.6c-1.5-1.5-3.1-2.9-5.2-4.9-1.7 2-3 4-4.5 5.3l-74 74.1c-3 3.8-7.6 6-12.4 6-4.8 0-9.4-2.2-12.4-6-9.4-9.3-18.7-18.7-27.9-27.9-4.4-3.1-7.1-8.1-7.1-13.5s2.6-10.4 7.1-13.5c24.4-24.5 48.8-48.9 73.3-73.2 2-1.7 4.2-3.3 6.5-4.7l-0.5-0.2z"  horiz-adv-x="1024" />

    
    <glyph glyph-name="icon_bangzhu" unicode="&#58980;" d="M492.8 702.1c0.8 0.1 0.9 0.1 2.2 0.2h13c9.1-0.9 16.9-8.2 18.5-17.5 1.7-5.8 1.7-11.9 0-17.6-2.6-8-9.2-13.8-17-14.9-4.7-0.7-9.7-1.2-14.8-1.3-25.8-1.2-50.5-10.8-70.9-27.6-21.9-16.9-38.9-40.4-48.7-67.4-4.3-12.7-6.7-26-7.2-39.1v-11.7c-0.7-11.8-8.6-21.7-19.6-24.4-1.8-0.4-3.7-0.6-5.7-0.5-13.7 0.6-24.4 13-23.7 27.2-0.3 27 4.8 53.9 14.8 79 8.4 19.6 19.8 37.5 33.8 53 12.6 14.5 27.4 27.1 43.6 37.1 18 11.3 37.9 18.9 58.4 22.3 4.5 0.9 9.2 1.5 16.2 2.3 1.6 0.2 1.6 0.2 2.5 0.3 0.9 0.1 0.9 0.1 2.4 0.3 1.3 0.2 1.3 0.2 2.2 0.3z m122.8-676.5c-0.5-7.7-4.6-12.6-12-13.9-1.1 0-2.3-0.1-3.8-0.2-0.7-0.1-0.7-0.1-1.1-0.1-0.5 0-0.5 0-1.2-0.1-3.8-0.4-5.4-0.5-7.6-0.5h-164c-6.6-0.5-12.4 2.8-15.1 8-3.6 6.1-3.6 13.4-0.2 19.1 2.9 4.9 8.3 7.7 12.5 7.1l175.9-0.1c9.2 0 16.8-7.8 16.8-17.6-0.1-0.5-0.1-0.5-0.2-1.7z m-185.2 40.7l-16.2-0.2h-0.6c-7 0.4-13.4 5.6-15.9 13.4-2.6 9.8 3.1 20.3 13.2 23.4l0.3 0.1 0.3 0.1c0.1 0 0.7 0.1 2.9 0.5l195.2-0.1c7.6-0.3 14.5-6.1 16.4-14.3 2-8.9-2.4-17.8-11.5-22.2-1.6-0.4-4.2-0.7-6.4-0.7H430.4zM458.2-42c-7.1 0.7-12 4.1-14.7 9.6-3.5 8.9 0.5 19 9.1 23.1 1.8 0.8 3 1.1 5.2 1.2h107.5c8.2-0.4 15.2-7.4 16.1-16.7 0.5-6-2.6-12-6.6-14.1-3.7-2.6-6.7-3.6-10.1-3.7l-106.7 0.4 0.2 0.2zM280.9 378.2c-12.2 19.9-22.1 40.2-30.4 62.7-7.3 21.7-11.2 43.5-11.8 65.8-0.7 23.6 1.5 47.2 6.4 69.9 7.4 34.7 21.3 66.7 41.1 94.9 27.8 41.1 64.9 74.1 108.4 96.7l0.4 0.2c18 9 37.5 15.7 59.9 20.6 18.8 3.9 38.2 5.9 57.7 5.9 4.2 0 8.5-0.1 12.5-0.3 34.4-1.2 67.7-9.1 97.7-23l4.6-2c18-8.7 36.7-21 53.2-35 25.9-21.7 47.6-47 64.8-75.5 16.4-26.8 27.8-56.1 33.9-86.7 5.5-25.6 7.2-51.2 5.3-75.2l-0.2-4.2c-1.8-20.5-7.1-42.4-15.1-62.3-12-31.2-27.8-60-47.3-86-8.4-11.3-17.3-21.9-25.8-30.8-8.1-8.9-14.1-18.4-19-30.2-5.4-11.4-9.1-22.4-11.2-33-0.8-4.8-1-7.6-1.5-15.3-0.3-4.7-0.4-6.8-0.5-8.3-0.5-8.1-1.5-15.6-3.9-26.5-6.3-19.2-18.5-34.5-34.7-43.6-12.1-7.1-25.1-10.8-38.3-10.8h-1.2l-74.2-0.5h-67.3l-8.1 1.3-44.6 14.2-4.2 3.7c-8 7-14.5 15.7-19 25.2l-0.3 0.7c-5.4 10.7-8 22.9-7.5 34.1 0.2 25.5-6.2 49.4-18.3 69.6-5.2 8.1-10.5 14.9-16.6 21.2-18.1 20.8-32.9 41.4-44.9 62.5z m49.3 262.9c-15.9-22.6-27-48-32.9-75.8-4.1-18.6-5.8-37.8-5.3-57.2 0.4-17 3.4-33.5 8.8-49.5 6.8-18.4 15.2-35.6 26-53.3 10.1-17.7 22-34.5 36.6-51.7 8.9-9.2 16.7-19 24.5-31.1 17.6-29.4 26.6-62.9 26.3-99-0.1-3 0.6-6.2 2-9.1l0.6-1.3c0.8-1.7 1.8-3.3 2.9-4.8l29-9.2h63l74.2 0.5h1.4c3.5 0 7.2 1.1 11.8 3.7 4.6 2.6 8.3 7.2 9.8 11.1 1.1 5.5 1.8 10.4 2.2 16.5 0.1 1.6 0.2 3.4 0.5 7.6 0.5 9.4 0.9 13.9 2.2 21.7 3.1 15.9 8.3 31.2 15 45.3 6.7 16.1 16 30.8 28.6 44.6 7.4 7.9 15 16.9 22.2 26.5 16.5 22.1 30 46.5 40.3 73.5 6.2 15.5 10.3 32.3 11.5 46.4l0.2 4c1.6 19.7 0.1 40.2-4.3 61.2-4.9 24.8-14 48.1-27.2 69.7-14.3 23.6-32.1 44.5-53.6 62.5-13.3 11.3-28.3 21.1-40.8 27.2l-4.1 1.8c-24.3 11.3-50.7 17.5-78.2 18.5-3.4 0.1-7 0.2-10.4 0.2-15.8 0-31.6-1.6-46.5-4.7-17.8-3.9-33.2-9.2-47.1-16.1-35.9-18.6-66.2-45.6-89.2-79.7z"  horiz-adv-x="1024" />

    
    <glyph glyph-name="icon_service" unicode="&#58981;" d="M895.9 413.19c0 203.1-186.3 390.2-389.6 390.2s-389.5-187.2-389.5-390.2v-69c0-46 26.4-46 54-46s53.9 20.6 53.9 46v69c0 24.4-15.6 44.2-39.5 45.8 22.3 156 158.9 285.2 321.2 285.2s301.8-129.2 324-285.2c-24-1.7-42.8-21.5-42.8-45.8v-69c0-25.5 10.5-46 46-46s62.3 0 62.3 46v69zM297.8 401.39c0 121.3 94.6 219.6 211.4 219.6 116.7 0 211.4-98.3 211.4-219.6s-94.6-219.6-211.4-219.6c-116.8-0.1-211.4 98.3-211.4 219.6m373.4-220.6c72 59.8 106.5 123.4 106.5 226.8 0 148.3-127.8 277.8-270.5 277.8s-271.5-129.5-271.5-277.8c0-104.3 50-193 133.5-237.5-84-27.9-153.1-96.5-187.3-150.3-7.1-11.3-24.1-37.3 0-53.5 24.1-16.2 37.7 5.4 45.5 16.2 70.3 97.2 167.3 150.5 284.5 150.5 117.2 0 220.4-51.2 284.6-150.5 7.2-11.2 23.8-26.9 44.3-16.2 20.5 10.7 11.4 32.2 5.2 44.1-33.4 64.4-104.1 132.2-189.6 159.8l14.8 10.6z"  horiz-adv-x="1024" />

    
    <glyph glyph-name="icon_notice" unicode="&#58996;" d="M851.7 120.2c-0.3-1.3-0.8-2.6-1.1-3.8-0.9-2.9-2-5.8-3.3-8.5-0.4-0.8-0.6-1.7-1-2.6-0.3-0.5-0.8-0.9-1.1-1.5-1.9-3.1-4-5.9-6.3-8.6-0.9-1-1.9-2-2.8-2.9-2.4-2.3-5-4.4-7.8-6.2-1.2-0.8-2.4-1.4-3.7-2.1-2.6-1.4-5.3-2.6-8.1-3.5-1.2-0.4-2.4-0.9-3.6-1.2-4-1-8.1-1.7-12.3-1.7H223.7h-0.2c-4.3 0-8.3 0.7-12.3 1.7-1.3 0.3-2.4 0.8-3.6 1.2-2.8 0.9-5.5 2.1-8.1 3.5-1.3 0.7-2.5 1.3-3.7 2.1-2.8 1.8-5.4 3.9-7.7 6.2-1 0.9-1.9 1.9-2.9 2.9-2.4 2.6-4.5 5.5-6.3 8.6-0.3 0.5-0.8 0.9-1.1 1.5-0.5 0.8-0.6 1.7-1 2.6-1.3 2.7-2.4 5.5-3.3 8.4-0.4 1.3-0.9 2.6-1.2 3.9-0.9 4-1.5 8.1-1.6 12.4v0.6 0.1c0 0.1 0 0 0 0 0 9.5 2.3 19.1 7 27.6l64.9 119.8v168c0 51.9 18 106.4 50.8 153.5 27.4 39.4 64 70.8 104.7 91.8 0 2.3 0.6 4.5 0.8 6.7 0.4 5.6 0.8 11.3 2 16.7 0.5 2 1.3 3.8 1.8 5.7 1.5 5.6 3 11.1 5.2 16.2 0.9 2.1 2.2 3.9 3.1 5.9 2.4 4.8 4.6 9.6 7.5 14 1.5 2.2 3.4 4.1 5 6.2 2.9 3.7 5.6 7.6 8.9 11 2.6 2.7 5.6 4.8 8.5 7.2 2.7 2.3 5.3 5 8.2 7 4 2.8 8.4 4.9 12.7 7.1 2.2 1.1 4.2 2.6 6.5 3.6 5.5 2.4 11.3 4.1 17.1 5.6 1.4 0.3 2.6 1 4 1.3 7.3 1.6 14.9 2.4 22.7 2.4 7.7 0 15.3-0.8 22.6-2.4 1.3-0.3 2.5-0.9 3.9-1.2 5.9-1.5 11.7-3.1 17.2-5.6 2.2-0.9 4-2.3 6.1-3.4 4.4-2.3 8.9-4.5 13-7.3 2.9-2 5.4-4.6 8-6.8 2.9-2.5 6-4.7 8.7-7.4 3.2-3.3 5.9-7.2 8.7-10.9 1.7-2.2 3.6-4.1 5.2-6.4 2.9-4.4 5.2-9.2 7.5-14 1-2 2.2-3.8 3.1-5.9 2.2-5 3.6-10.5 5.1-15.9 0.6-2.1 1.4-4 1.9-6.1 1.1-5.3 1.5-10.8 2-16.3 0.2-2.4 0.8-4.7 0.8-7.1 40.7-21 77.3-52.4 104.7-91.8 32.8-47.1 50.8-101.7 50.8-153.5v-168.1l64.9-119.8c0.9-1.7 1.4-3.6 2.1-5.5 0.7-1.6 1.4-3.2 1.9-4.9 1.7-5.5 2.8-11.2 2.9-17 0-0.1 0.1-0.2 0.1-0.3v-0.1c0-0.2 0-0.4-0.1-0.6 0-4-0.6-8.1-1.5-12.1zM293.8 258.8l-66.9-123.6c0.2-0.1 0.7-0.2 0.7-0.2h569.7l-67.1 123.8c-2.4 4.3-3.6 9.2-3.6 14.2V448.7c0 84.5-62.6 172.1-146.1 203.9-20.6 7-36.1 10.1-45.4 11.4-10.6 1.6-30.7 2-44.8 0-13.7-1.9-29.7-6.1-48.9-12.6-28.9-11.5-57.6-28.9-82.7-50-37.9-43.3-61.5-100.2-61.5-152.8v-175.7c0.2-4.9-1.1-9.8-3.4-14.1z m218.8 497.4c-27 0-49.8-18-58.7-43.1 37.7 7.5 80.4 7.2 117.5-0.5-8.8 25.3-31.7 43.6-58.8 43.6zM648 18.1c16 0 29-13.6 29-30.4 0-16.8-13-30.4-29-30.4H377.2c-16 0-29 13.6-29 30.4 0 16.8 13 30.4 29 30.4H648z"  horiz-adv-x="1024" />

    
    <glyph glyph-name="icon_help" unicode="&#58991;" d="M512 167.9c-25.7 0-47.9-20.4-47.9-46 0-24.7 22.2-45.1 47.9-45.1 26.6 0 47.9 20.4 47.9 45.1 0 25.5-21.3 46-47.9 46zM660.9 642.7c-36.4 32.3-86 48.5-148.1 48.5-58.5 0-105.5-14.5-141-45.1-35.5-29.8-57.6-73.2-64.7-130.2l80.7-9.4c6.2 42.5 21.3 74 43.4 93.6 22.2 20.4 49.6 29.8 82.5 29.8 34.6 0 63.8-11.1 87.8-33.2 23.1-21.3 34.6-46.8 34.6-76.6 0-15.3-3.5-30.6-11.5-44.3-8-13.6-25.7-31.5-52.3-54.5-27.5-23-46.1-40-56.7-51.9-13.3-16.2-23.9-32.3-30.1-48.5-8.9-21.3-13.3-46.8-13.3-75.7l0.9-23h74.5c0.9 29.8 2.7 51.9 6.2 64.7 4.4 13.6 9.8 25.5 17.7 35.7 8 10.2 23.9 26.4 49.6 47.7 37.2 32.3 62.9 59.6 76.2 81.7 12.4 22.1 19.5 46.8 19.5 73.2 0 46-18.6 85.2-55.9 117.5zM874 746C777.3 842.8 648.8 896 512 896S246.7 842.8 150 746C53.2 649.3 0 520.8 0 384s53.2-265.3 150-362c96.7-96.8 225.2-150 362-150s265.3 53.2 362 150c96.8 96.7 150 225.2 150 362s-53.2 265.3-150 362z m-46.4-677.6C743.3-16 631.3-62.4 512-62.4c-119.3 0-231.3 46.4-315.6 130.8C112 152.7 65.6 264.7 65.6 384c0 119.3 46.4 231.3 130.8 315.6C280.7 784 392.7 830.4 512 830.4c119.3 0 231.3-46.4 315.6-130.8C912 615.3 958.4 503.3 958.4 384c0-119.3-46.4-231.3-130.8-315.6z"  horiz-adv-x="1024" />

    
    <glyph glyph-name="icon_kefu" unicode="&#58997;" d="M851.9 148.2H732.7c-14.2 0-25.8 12-25.8 26.8l-0.2 315.4c-1.7 110.2-88.1 194.5-194.6 195-106.6-0.5-192.9-84.8-194.6-195l-0.2-273.6S350.6 97.5 430 111.4c6 20.9 27.3 28.7 41.1 28.7h83.6c28.5 0 51.7-24 51.7-53.5v-16.7c0-29.6-23.1-53.6-51.7-53.6h-76.9c-21.9 0-40.4 14.2-48 34.1-1.3 0.7-11.6-0.2-21.7 2.1-78.2 29-112.6 96.1-112.6 96.1-1.4-0.3-2.7-0.5-4.1-0.5H172.1c-14.2 0-25.8 12-25.8 26.8V449.4c0 14.7 11.6 26.8 25.8 26.8h85.2c0 22.7-0.1 14.2-0.1 14.2 3.1 256.4 250.5 257.3 250.5 257.3 2 0.1 6.6 0.1 8.5 0 0 0 247.5-0.9 250.5-257.3 0 0 0 8.5-0.1-14.2h85.2c14.2 0 25.8-12 25.8-26.8V175c0.1-14.8-11.4-26.8-25.7-26.8zM262.7 397.7c0 9.1-4.7 16.5-10.5 16.5h-44c-5.8 0-10.5-7.4-10.5-16.5v-169c0-9.1 4.7-16.5 10.5-16.5h44c5.8 0 10.5 7.4 10.5 16.5v169z m563.6 0c0 9.1-4.7 16.5-10.5 16.5h-44c-5.8 0-10.6-7.4-10.6-16.5v-169c0-9.1 4.8-16.5 10.6-16.5h44c5.8 0 10.5 7.4 10.5 16.5v169z"  horiz-adv-x="1024" />

    
    <glyph glyph-name="icon_yijian" unicode="&#58998;" d="M197.7 18.3c-5.7 0-11.3 1.9-15.9 5.6-7.9 6.4-11.1 16.8-8.2 26.4l44.2 142.5c-31.6 27.3-56.8 58.4-75.2 92.7-21.9 40.8-32.9 84.3-32.9 129.2 0 44.6 10.9 88.2 32.4 129.7 20.6 39.8 49.9 75.6 87 106.5 37.1 30.9 80 55.1 127.5 72.1 49.4 17.7 101.7 26.6 155.4 26.6s105.9-9 155.4-26.6c47.5-17 90.5-41.3 127.5-72.1 37.1-30.9 66.4-66.8 87-106.5 21.5-41.5 32.4-85.1 32.4-129.7 0-44.6-10.9-87.8-32.5-128.4-20.6-38.8-50-73.5-87.3-103.2-75.7-60.3-176-93.5-282.5-93.5-47.7 0-94.2 6.6-138.5 19.7l-163.8-88c-3.7-2-7.9-3-12-3zM512 700.2c-47.8 0-94.3-8-138.2-23.7-41.9-15-79.7-36.3-112.2-63.4-32-26.6-57.1-57.3-74.7-91.2C169 487.4 160 451.4 160 414.7c0-73.1 36.4-142.1 102.5-194.2 8-6.3 11.3-16.9 8.3-26.6l-31-100.1 119.1 64c6.1 3.3 13.3 3.9 19.8 1.8C421 146 465.9 139.1 512 139.1c194.1 0 352 123.6 352 275.6 0 36.7-9 72.7-26.9 107.2-17.5 33.9-42.7 64.6-74.7 91.2-32.5 27.1-70.3 48.4-112.2 63.4-43.9 15.7-90.4 23.7-138.2 23.7z m189.6-227H322.4c-13.9 0-25.1 11.1-25.1 24.8 0 13.7 11.3 24.8 25.1 24.8h379.2c13.9 0 25.1-11.1 25.1-24.8 0-13.8-11.2-24.8-25.1-24.8z m-57.2-177.4H379.6c-13.9 0-25.1 11.1-25.1 24.8s11.3 24.8 25.1 24.8h264.8c13.9 0 25.1-11.1 25.1-24.8s-11.2-24.8-25.1-24.8z"  horiz-adv-x="1024" />

    
    <glyph glyph-name="icon_bukeyong" unicode="&#58999;" d="M148.114286 896C146.285714 894.171429 146.285714 892.342857 146.285714 892.342857c1.828571 0 1.828571 1.828571 3.657143 3.657143h-1.828571zM660.114286 356.571429c-3.657143 3.657143-7.314286 1.828571-9.142857 0-3.657143 1.828571 5.485714 9.142857-3.657143 9.142857 3.657143 3.657143 5.485714 7.314286 7.314285 12.8-3.657143-3.657143-7.314286-1.828571-3.657142 5.485714-5.485714 1.828571-9.142857 3.657143-12.8 1.828571-1.828571 1.828571 0 3.657143 1.828571 7.314286-40.228571 25.6-73.142857 53.028571-107.885714 80.457143-16.457143 7.314286-29.257143 18.285714-38.4 29.257143-10.971429-3.657143-14.628571 14.628571-29.257143 18.285714-3.657143-3.657143 3.657143-5.485714 1.828571-9.142857-7.314286 0-5.485714 12.8-12.8 20.114286-3.657143 3.657143-10.971429 3.657143-12.8 9.142857-1.828571-1.828571-1.828571-10.971429-5.485714-9.142857-3.657143 1.828571 1.828571 7.314286 1.828571 10.971428-32.914286 23.771429-58.514286 49.371429-100.571428 69.485715-5.485714 16.457143-31.085714 23.771429-40.228572 38.4-16.457143 1.828571-31.085714 23.771429-49.371428 32.914285-1.828571-9.142857-10.971429-5.485714-14.628572-10.971428-1.828571 9.142857 12.8 5.485714 16.457143 12.8-7.314286 5.485714-7.314286-1.828571-12.8-1.828572-3.657143 3.657143 1.828571 9.142857 1.828572 10.971429-9.142857 0-12.8 12.8-16.457143 7.314286-12.8 10.971429-31.085714 29.257143-47.542857 32.914285 0 5.485714 5.485714 0 5.485714 5.485715-3.657143 1.828571-14.628571 0-10.971429 7.314285-5.485714 1.828571-7.314286 0-5.485714-1.828571 10.971429-9.142857 1.828571-3.657143 0 0-3.657143-3.657143 5.485714-3.657143 0-7.314286-7.314286 1.828571-1.828571 9.142857-5.485714 12.8C122.514286 762.514286 109.714286 800.914286 78.628571 800.914286c-3.657143 5.485714-1.828571 18.285714 7.314286 18.285714 5.485714-3.657143-7.314286-12.8 1.828572-12.8C102.4 841.142857 137.142857 859.428571 144.457143 896h-3.657143c0-1.828571-1.828571-3.657143-3.657143-3.657143-1.828571 1.828571-1.828571 3.657143-1.828571 3.657143h-14.628572c-7.314286-7.314286-12.8-14.628571-20.114285-20.114286-14.628571-32.914286-36.571429-49.371429-54.857143-76.8l32.914285-23.771428c25.6-18.285714 34.742857-21.942857 76.8-54.857143 0 0 0-1.828571-1.828571-1.828572l25.6-20.114285c7.314286-1.828571 9.142857-5.485714 14.628571-7.314286 0 7.314286 7.314286 1.828571 9.142858 5.485714 3.657143 0 0-9.142857-3.657143-5.485714 16.457143-20.114286 38.4-36.571429 64-51.2 1.828571 5.485714 7.314286 7.314286 12.8 3.657143-1.828571-3.657143-7.314286-1.828571-7.314286-9.142857 23.771429-12.8 43.885714-42.057143 73.142857-45.714286 1.828571-1.828571 0-3.657143-1.828571-7.314286 85.942857-65.828571 177.371429-131.657143 263.314285-197.485714 5.485714-3.657143 5.485714 5.485714 9.142858 3.657143 3.657143-1.828571-1.828571-7.314286-1.828572-10.971429 21.942857-10.971429 34.742857-25.6 51.2-32.914285 5.485714 7.314286-10.971429 5.485714-1.828571 12.8zM780.8 738.742857c0-3.657143 0-7.314286 1.828571-10.971428 9.142857 1.828571 20.114286-12.8 29.257143-18.285715 1.828571 1.828571 1.828571 5.485714 3.657143 7.314286 3.657143-1.828571 5.485714-1.828571 9.142857-3.657143-5.485714-5.485714-3.657143 0-3.657143-7.314286 7.314286 3.657143 7.314286-5.485714 18.285715-7.314285 3.657143-1.828571-1.828571-7.314286-1.828572-10.971429 14.628571 1.828571-3.657143 16.457143 7.314286 18.285714-1.828571 0-3.657143 1.828571-5.485714 1.828572 0 1.828571 1.828571 3.657143 1.828571 5.485714 5.485714 0 0-5.485714 7.314286-5.485714 0-5.485714 0-9.142857 5.485714-10.971429 0 3.657143-3.657143 5.485714-1.828571 9.142857 3.657143-3.657143 5.485714-9.142857 10.971428-12.8-7.314286 3.657143-7.314286-7.314286-16.457143-3.657142-1.828571-3.657143-1.828571-5.485714-3.657142-9.142858 7.314286 0 10.971429 10.971429 20.114285 7.314286-1.828571-5.485714 3.657143-9.142857 5.485715-14.628571-3.657143-3.657143-1.828571 7.314286-10.971429 5.485714 0-1.828571-1.828571-3.657143-1.828571-5.485714 5.485714-1.828571 7.314286-3.657143 10.971428-5.485715 5.485714 5.485714 12.8-1.828571 16.457143 5.485715 3.657143-3.657143-3.657143-7.314286-3.657143-9.142857 5.485714 1.828571 10.971429 5.485714 14.628572 12.8 7.314286-1.828571 5.485714-5.485714 7.314285-9.142858-3.657143-1.828571-5.485714-5.485714-10.971428 0-1.828571-3.657143-3.657143-7.314286-3.657143-10.971428-5.485714 0 0 5.485714-5.485714 5.485714-3.657143-3.657143 5.485714-3.657143 0-7.314286C980.114286 583.314286 1075.2 512 1168.457143 438.857143c12.8-5.485714 20.114286-14.628571 31.085714-21.942857 3.657143-1.828571 3.657143 1.828571 5.485714 3.657143 1.828571-1.828571 5.485714-1.828571 7.314286-3.657143 0-7.314286-5.485714-1.828571-5.485714-7.314286 9.142857-1.828571 12.8-14.628571 21.942857-9.142857 0-12.8 20.114286-23.771429 32.914286-20.114286 0-5.485714-5.485714 0-5.485715-7.314286 7.314286-5.485714 5.485714 7.314286 12.8 0-1.828571-1.828571-3.657143 0-5.485714-3.657142 5.485714-3.657143 10.971429-10.971429 18.285714-14.628572v31.085714c-1.828571 0-1.828571 1.828571-3.657142 1.828572 0-7.314286-7.314286-1.828571-10.971429 0 0 5.485714 5.485714 0 5.485714 7.314286-14.628571 7.314286-25.6 18.285714-36.571428 29.257142l-10.971429 9.142858c-7.314286 5.485714-14.628571 9.142857-23.771428 10.971428-1.828571 1.828571 0 3.657143 0 5.485714-18.285714 14.628571-36.571429 27.428571-53.028572 42.057143l-1.828571 1.828572c-25.6 14.628571-45.714286 32.914286-65.828572 49.371428l-3.657143 1.828572c-54.857143 38.4-107.885714 76.8-155.428571 117.028571-16.457143 5.485714-21.942857 21.942857-40.228571 23.771429-1.828571 1.828571 0 3.657143 0 5.485714-3.657143 0-9.142857 7.314286-10.971429 0 0 3.657143-3.657143 3.657143-1.828571 9.142857C778.971429 764.342857 691.2 830.171429 605.257143 896h-43.885714c62.171429-45.714286 122.514286-91.428571 181.028571-138.971429 18.285714-1.828571 20.114286-23.771429 38.4-18.285714zM1243.428571-18.285714c12.8 16.457143 23.771429 31.085714 36.571429 47.542857V73.142857c-1.828571-1.828571-3.657143-5.485714-5.485714-7.314286 7.314286-7.314286-3.657143-23.771429 3.657143-31.085714-1.828571-1.828571-3.657143 0-5.485715 0 1.828571 7.314286-7.314286 12.8 0 21.942857 0 3.657143-1.828571 0-3.657143-1.828571s-3.657143 0-7.314285 1.828571c-10.971429-21.942857-31.085714-32.914286-32.914286-54.857143-1.828571 1.828571 0 3.657143-3.657143 5.485715-1.828571-3.657143-3.657143-7.314286-3.657143-10.971429 1.828571-1.828571 9.142857-1.828571 7.314286-5.485714-5.485714-3.657143-7.314286 3.657143-10.971429 5.485714-10.971429-9.142857-3.657143-23.771429-16.457142-27.428571 0 5.485714-1.828571 12.8-1.828572 18.285714-7.314286 5.485714-9.142857-1.828571-16.457143 1.828571 0 3.657143 1.828571 1.828571 3.657143 1.828572-93.257143 73.142857-133.485714 96.914286-226.742857 170.057143-5.485714 3.657143-9.142857 3.657143-10.971429 0-1.828571 1.828571 0 3.657143 1.828572 7.314285-3.657143 0-7.314286 0-9.142857-3.657142-1.828571 3.657143 3.657143 5.485714 1.828571 10.971428-34.742857 20.114286-62.171429 43.885714-89.6 65.828572-9.142857 3.657143-16.457143 7.314286-18.285714 14.628571-7.314286-3.657143-10.971429 5.485714-16.457143 10.971429-1.828571-3.657143 3.657143-5.485714 0-10.971429 0 7.314286-10.971429 10.971429-9.142857 18.285714-3.657143 0-5.485714-3.657143-10.971429 0-1.828571 1.828571 0 3.657143 1.828572 7.314286-18.285714 5.485714-31.085714 29.257143-43.885715 27.428571-1.828571 5.485714-1.828571 10.971429-10.971428 12.8-1.828571-3.657143 1.828571-3.657143 1.828571-5.485714h-10.971428c-3.657143 1.828571 1.828571 7.314286 1.828571 10.971429 3.657143 0 1.828571-1.828571 1.828572-3.657143 9.142857 3.657143-1.828571 10.971429-9.142858 12.8 5.485714-5.485714-1.828571-5.485714-9.142857-1.828572 10.971429 5.485714-7.314286 3.657143 0 12.8-16.457143 7.314286-25.6 18.285714-38.4 25.6-1.828571-3.657143 1.828571-3.657143 1.828572-5.485714-1.828571-3.657143-7.314286 1.828571-10.971429 1.828572 0 5.485714 5.485714 0 5.485714 5.485714-3.657143 0-1.828571 1.828571-1.828571 3.657143-5.485714 0-7.314286-3.657143-10.971429-5.485715 1.828571-3.657143 9.142857-5.485714 3.657143-12.8 10.971429-5.485714 20.114286-12.8 27.428572-3.657142 3.657143-5.485714 9.142857-9.142857 5.485714-18.285715 3.657143 0 9.142857 0 14.628571 1.828572-1.828571-3.657143-1.828571-7.314286-5.485714-16.457143-3.657143 7.314286-7.314286 14.628571-16.457143 21.942857-3.657143-3.657143 5.485714-3.657143 0-7.314286-5.485714 0 0 5.485714-5.485714 5.485715 0-7.314286-9.142857 3.657143-9.142857-3.657143 14.628571-5.485714 16.457143-14.628571 32.914286-18.285715-1.828571 1.828571 0 10.971429 3.657142 10.971429 3.657143-5.485714-1.828571-14.628571 1.828572-21.942857 3.657143 0 10.971429-7.314286 10.971428 0 3.657143-3.657143-3.657143-3.657143-1.828571-5.485714 31.085714-14.628571 60.342857-49.371429 78.628571-53.028572 1.828571-1.828571 0-3.657143-1.828571-7.314286 12.8-3.657143 20.114286-16.457143 32.914286-16.457142 1.828571-1.828571 0-3.657143 0-5.485715 71.314286-49.371429 131.657143-102.4 206.628571-151.771428 1.828571 3.657143 5.485714 3.657143 7.314286 5.485714 3.657143-7.314286-7.314286-3.657143-9.142857-9.142857 16.457143-9.142857 29.257143-21.942857 42.057143-31.085714l-1.828572-1.828572 25.6-20.114286 1.828572 1.828572c56.685714-36.571429 45.714286-32.914286 102.4-71.314286 1.828571 5.485714 12.8 10.971429 7.314285 18.285714 9.142857 0 14.628571 9.142857 18.285715 18.285715-3.657143 1.828571-3.657143-1.828571-5.485715-1.828572-1.828571 1.828571 0 3.657143 0 5.485715 1.828571 0 7.314286-3.657143 9.142857-3.657143zM149.942857 896H120.685714h29.257143zM559.542857 896h45.714286"  horiz-adv-x="1281" />

    
    <glyph glyph-name="icon_tiaozhuan" unicode="&#59016;" d="M735.8 385.5c0-8.2-3.1-16.4-9.4-22.6L376.1 12.6c-12.5-12.5-32.8-12.5-45.3 0l-33.2 33.2c-12.5 12.5-12.5 32.8 0 45.3l293.8 293.8-291.3 291.4c-12.5 12.5-12.5 32.8 0 45.3l33.9 33.9c12.5 12.5 32.8 12.5 45.3 0l347.2-347.2c6.2-6.4 9.3-14.6 9.3-22.8z"  horiz-adv-x="1024" />

    
    <glyph glyph-name="icon_bank" unicode="&#59071;" d="M621.7 54.9V237.7c0 20.2 16.4 36.6 36.6 36.6 20.2 0 36.6-16.4 36.6-36.6v-182.9H768V384H548.6v-329.1h73.1z m-292.6 0V237.7c0 20.2 16.4 36.6 36.6 36.6s36.6-16.4 36.6-36.6v-182.9h73.1V384H256v-329.1h73.1z m497 329.1v-329.1h42.4c15.1 0 27.4-12.3 27.4-27.4 0-15.1-12.3-27.4-27.4-27.4H155.4c-15.1 0-27.4 12.3-27.4 27.4 0 16 11.2 29.8 26.8 33.2l43 9.2V384H163c-32 0-47.1 39.4-23.4 60.8l349 314.2c13.3 12 33.4 12 46.7 0l349-314.2C908.2 423.5 893 384 861 384h-34.9z m-606.7 54.9h585.1L512 694.9l-292.6-256z"  horiz-adv-x="1024" />

    
    <glyph glyph-name="icon_wallet" unicode="&#59072;" d="M826.8 512.8v84.3c0 33.8-26.2 61.2-58.5 61.2H220.7c-32.3 0-58.5-27.4-58.5-61.2v-429c0-29.5 21.3-58.4 58.5-58.4h547.6c41 0 58.5 23.4 58.5 58.4v87.1H649.1c-68 0-123.2 57.7-123.2 128.8S581 512.8 649.1 512.8h177.7z m52.5-257.6v-87.1c0-74.8-40.3-113.2-111-113.2H220.7c-58.5-0.5-111 35.4-111 113.2v429c0 64.1 49.7 116 111 116h547.6c61.3 0 111-51.9 111-116v-84.3h7.2c15.3 0 27.7-13 27.7-29v-199.6c0-16-12.4-29-27.7-29h-7.2z m-17.5 202.7H649.1c-39.1 0-70.7-33.1-70.7-73.9s31.7-73.9 70.7-73.9h212.7V457.9z m-169.5-117c-22.9 0-41.6 19.3-41.6 43.1s18.7 43.1 41.6 43.1S734 407.9 734 384s-18.7-43.1-41.7-43.1z"  horiz-adv-x="1024" />

    
    <glyph glyph-name="icon_duanxinsms" unicode="&#59010;" d="M574 606.5l-37-109.2c-10-30.9-18-59.2-24.3-85.8h-1c-6.3 27.3-14 54.9-23.3 85.5l-36 109.5h-48l-17.3-249h36l5.7 102.8c2 34.8 4 74.1 4.7 105h1c6.3-29.9 15.3-62.4 25.6-94.9l35-110.5h29l38 112.8c10.6 31.5 20.7 63.4 28.3 92.6h1c-0.3-30.9 1.7-69.3 3.4-103.1l5.6-104.7h37.3l-15.3 249H574zM291.7 500.2c-32.3 13.6-46.6 24-46.6 45.2 0 15.9 12.6 33.1 43 33.1 21 0 37-6.5 45.3-11l9.3 31.2c-11 5.5-29.3 11.4-53.6 11.4-50.6 0-82.9-29.6-82.9-68.9 0-33.8 25.6-56.3 63.6-71.2 30.3-12.3 43.3-25.3 43.3-46.5 0-22.4-17-37.7-47.3-37.7-21 0-41.6 6.5-55.3 14.7l-8.6-31.6c12.3-8.1 37.7-15 61.6-15 57.3 0 88.9 31.2 88.9 72.9-0.1 34-19.7 55.8-60.7 73.4z m469.9 0c-32.3 13.6-46.6 24-46.6 45.2 0 15.9 12.6 33.1 43 33.1 21 0 37-6.5 45.3-11l9.3 31.2c-11 5.5-29.3 11.4-53.6 11.4-50.6 0-82.9-29.6-82.9-68.9 0-33.8 25.6-56.3 63.6-71.2 30.3-12.3 43.3-25.3 43.3-46.5 0-22.4-17-37.7-47.3-37.7-21 0-41.6 6.5-55.3 14.7l-8.7-31.6c12.3-8.1 37.7-15 61.6-15 57.3 0 89 31.2 89 72.9 0 34-19.7 55.8-60.7 73.4z m167.8-209c0-61.3-50.9-111-113.8-111h-75.9v-166.7L491.3 180.2H208.4c-62.9 0-113.8 49.7-113.8 111V643c0 61.4 51 111.2 113.8 111.2h607.2c62.9 0 113.8-49.8 113.8-111.2v-351.8z"  horiz-adv-x="1024" />

    
    <glyph glyph-name="icon_weigouxuan2" unicode="&#59020;" d="M512 42.700000000000045c-188.5 0-341.3 152.8-341.3 341.3S323.5 725.3 512 725.3 853.3 572.5 853.3 384 700.5 42.700000000000045 512 42.700000000000045z m0 66c152 0 275.3 123.2 275.3 275.3S664 659.3 512 659.3 236.7 536 236.7 384 360 108.70000000000005 512 108.70000000000005z"  horiz-adv-x="1024" />

    
    <glyph glyph-name="icon_bukeyong1" unicode="&#59017;" d="M25.6 360.228571v-3.657142c1.828571 1.828571 0 3.657143 0 3.657142zM757.028571 228.571429c-5.485714 0-7.314286-3.657143-7.314285-5.485715-3.657143 0-1.828571 10.971429-9.142857 5.485715 0 5.485714 0 9.142857-1.828572 14.628571 0-5.485714-5.485714-5.485714-5.485714 1.828571-5.485714-1.828571-9.142857-1.828571-10.971429-5.485714-1.828571 0-1.828571 3.657143-3.657143 7.314286-47.542857-3.657143-89.6 0-135.314285 1.828571-18.285714-3.657143-34.742857-1.828571-47.542857 1.828572-7.314286-9.142857-20.114286 3.657143-34.742858-1.828572 0-5.485714 5.485714-1.828571 7.314286-5.485714-5.485714-3.657143-12.8 7.314286-21.942857 9.142857-5.485714 0-10.971429-3.657143-16.457143 0 0-1.828571 5.485714-9.142857 1.828572-10.971428-3.657143 0-3.657143 7.314286-5.485715 9.142857-40.228571 0-76.8 5.485714-122.514285-3.657143-14.628571 9.142857-38.4 0-54.857143 7.314286-14.628571-9.142857-38.4 0-58.514286-1.828572 3.657143-9.142857-5.485714-10.971429-5.485714-18.285714-7.314286 3.657143 7.314286 9.142857 5.485714 16.457143-9.142857 0-5.485714-5.485714-9.142857-9.142857-5.485714 0-3.657143 9.142857-5.485714 9.142857-7.314286-5.485714-18.285714 3.657143-18.285715-3.657143-16.457143 1.828571-42.057143 5.485714-58.514285-1.828572-3.657143 3.657143 3.657143 3.657143 1.828571 7.314286-3.657143 0-10.971429-9.142857-12.8 0-5.485714 0-5.485714-3.657143-1.828571-3.657143 14.628571 0 3.657143-1.828571 0 0 0-5.485714 7.314286 0 3.657142-5.485714-7.314286-3.657143-7.314286 5.485714-12.8 7.314286-34.742857-12.8-67.657143 10.971429-91.428571-7.314286-5.485714 1.828571-12.8 12.8-5.485714 18.285714 7.314286 0 1.828571-14.628571 9.142857-9.142857-9.142857 36.571429 9.142857 71.314286-7.314286 106.057143l-3.657143-1.828571c1.828571-1.828571 0-3.657143 0-5.485715-1.828571 0-3.657143 1.828571-3.657143 1.828572l-10.971428-9.142857c-1.828571-10.971429-1.828571-20.114286-3.657143-27.428572 7.314286-34.742857 0-62.171429 1.828571-95.085714h40.228572c31.085714 0 40.228571 3.657143 95.085714 1.828571 0 0 1.828571-1.828571 0-1.828571l29.257143-1.828572c7.314286 3.657143 10.971429 1.828571 16.457143 1.828572-3.657143 5.485714 5.485714 5.485714 3.657143 9.142857 3.657143 1.828571 5.485714-7.314286 0-7.314286 25.6-3.657143 53.028571-3.657143 82.285714 0-1.828571 5.485714 1.828571 10.971429 7.314286 10.971429 0-3.657143-5.485714-5.485714 0-10.971429 27.428571 3.657143 60.342857-7.314286 85.942857 5.485715 1.828571 0 1.828571-3.657143 3.657143-7.314286 107.885714-1.828571 221.257143-1.828571 329.142857-3.657143 7.314286 0 1.828571 7.314286 5.485714 9.142857 3.657143 0 3.657143-7.314286 5.485714-9.142857 23.771429 3.657143 43.885714 0 60.342858 3.657143 0 7.314286-12.8-3.657143-9.142858 7.314286zM629.028571 607.085714c1.828571-3.657143 3.657143-5.485714 7.314286-7.314285 5.485714 7.314286 23.771429 1.828571 34.742857 1.828571 0 1.828571-1.828571 5.485714-1.828571 7.314286 3.657143 0 5.485714 1.828571 9.142857 1.828571-1.828571-7.314286-3.657143-1.828571 1.828571-7.314286 3.657143 7.314286 9.142857 0 18.285715 5.485715 3.657143 0 3.657143-7.314286 5.485714-9.142857 10.971429 10.971429-12.8 10.971429-5.485714 18.285714-1.828571-1.828571-3.657143 0-5.485715-1.828572-1.828571 1.828571 0 3.657143-1.828571 5.485715 3.657143 3.657143 3.657143-3.657143 9.142857 0 3.657143-3.657143 5.485714-7.314286 10.971429-5.485715-1.828571 3.657143-5.485714 1.828571-7.314286 5.485715 5.485714 0 9.142857-3.657143 16.457143-3.657143-7.314286-1.828571-1.828571-10.971429-10.971429-12.8 0-3.657143 1.828571-5.485714 1.828572-9.142857 5.485714 3.657143 1.828571 14.628571 12.8 18.285714 1.828571-5.485714 9.142857-5.485714 12.8-9.142857 0-5.485714-5.485714 5.485714-12.8-1.828572 1.828571-1.828571 0-3.657143 1.828571-5.485714 5.485714 1.828571 7.314286 1.828571 12.8 1.828572 1.828571 7.314286 10.971429 5.485714 9.142857 14.628571 5.485714 0 1.828571-7.314286 1.828572-9.142857 3.657143 5.485714 5.485714 10.971429 3.657143 18.285714 7.314286 3.657143 7.314286-1.828571 10.971428-3.657143-1.828571-3.657143-1.828571-7.314286-9.142857-7.314285 0-3.657143 1.828571-7.314286 3.657143-10.971429-3.657143-3.657143-3.657143 3.657143-7.314286 1.828571 0-5.485714 7.314286 0 3.657143-5.485714 122.514286 0 241.371429 0 358.4-5.485714 12.8 3.657143 25.6 0 38.4 0 3.657143 0 1.828571 3.657143 1.828571 5.485714 1.828571 0 5.485714 1.828571 7.314286 1.828572 3.657143-5.485714-3.657143-5.485714 0-9.142858 9.142857 3.657143 18.285714-3.657143 23.771429 5.485715 7.314286-10.971429 31.085714-7.314286 38.4 3.657143 3.657143-3.657143-3.657143-3.657143 0-9.142858 9.142857 0 0 9.142857 10.971428 7.314286 0-1.828571-3.657143-1.828571-1.828571-5.485714 7.314286 0 14.628571-1.828571 23.771428-1.828572l-18.285714 25.6c-1.828571-1.828571-1.828571 0-3.657143 0 3.657143-5.485714-5.485714-5.485714-9.142857-7.314285-3.657143 3.657143 3.657143 3.657143 0 9.142857-16.457143-1.828571-31.085714 0-47.542857 1.828571h-14.628571c-9.142857 0-16.457143-1.828571-25.6-5.485714-1.828571 0-1.828571 3.657143-3.657143 3.657143-23.771429 1.828571-45.714286 0-67.657143 1.828571h-1.828572c-29.257143-3.657143-56.685714 0-82.285714 1.828572h-3.657143c-67.657143-1.828571-131.657143-1.828571-193.828571 1.828571-16.457143-5.485714-31.085714 5.485714-45.714286-3.657143-1.828571 0-1.828571 3.657143-3.657143 3.657143-3.657143-1.828571-10.971429 0-9.142857-7.314286-1.828571 3.657143-5.485714 0-7.314286 5.485715-109.714286-1.828571-219.428571 0-327.314285 1.828571l-34.742857-25.6c76.8 0 153.6-1.828571 228.571428-5.485714 18.285714 16.457143 31.085714 0 43.885714 14.628571zM1448.228571 270.628571c0 20.114286 0 38.4 1.828572 60.342858L1424.457143 365.714286v-9.142857c10.971429-1.828571 10.971429-21.942857 21.942857-23.771429 0-1.828571-3.657143-1.828571-3.657143-3.657143-3.657143 7.314286-12.8 5.485714-12.8 18.285714-1.828571 3.657143-1.828571-1.828571-1.828571-3.657142s-3.657143-1.828571-7.314286-3.657143c3.657143-23.771429-5.485714-45.714286 5.485714-64-1.828571 0-1.828571 3.657143-5.485714 1.828571 0-3.657143 1.828571-7.314286 3.657143-10.971428 1.828571 0 9.142857 3.657143 9.142857 0-1.828571-5.485714-7.314286-1.828571-12.8-1.828572-3.657143-14.628571 10.971429-21.942857 3.657143-31.085714l-12.8 12.8c-9.142857 0-5.485714-7.314286-14.628572-9.142857-1.828571 3.657143 0 1.828571 1.828572 3.657143-118.857143 3.657143-164.571429 0-283.428572 3.657142-7.314286 0-9.142857-1.828571-9.142857-7.314285-1.828571 0-1.828571 3.657143-3.657143 7.314285-3.657143-1.828571-5.485714-3.657143-5.485714-9.142857-3.657143 1.828571 0 7.314286-5.485714 9.142857-40.228571-3.657143-76.8-1.828571-111.542857 0-9.142857-1.828571-18.285714-3.657143-23.771429 1.828572-3.657143-7.314286-12.8-1.828571-20.114286 0 0-3.657143 5.485714-1.828571 7.314286-9.142857-3.657143 5.485714-14.628571 1.828571-18.285714 9.142857-3.657143-1.828571-1.828571-5.485714-9.142857-7.314286-1.828571 0-1.828571 3.657143-3.657143 7.314286-18.285714-5.485714-42.057143 5.485714-51.2-3.657143-5.485714 3.657143-7.314286 7.314286-16.457143 3.657143 0-3.657143 3.657143-1.828571 5.485714-3.657143-3.657143-1.828571-5.485714-3.657143-9.142857-7.314286-3.657143 0-3.657143 7.314286-5.485714 9.142857 3.657143 1.828571 1.828571 0 3.657143-1.828571 5.485714 9.142857-7.314286 7.314286-14.628572 5.485714 7.314286-1.828571 1.828571-5.485714-5.485714-7.314285 5.485714 10.971429-7.314286-1.828571-7.314286 10.971428-18.285714-3.657143-31.085714 0-45.714285-1.828571 0-3.657143 3.657143-1.828571 5.485714-3.657143 0-3.657143-7.314286-3.657143-9.142857-5.485714-3.657143 3.657143 3.657143 3.657143 1.828571 7.314285-3.657143-1.828571-1.828571 0-3.657143 1.828572-3.657143-3.657143-3.657143-7.314286-5.485714-10.971429 3.657143-1.828571 10.971429 1.828571 10.971429-7.314286 12.8 1.828571 23.771429 1.828571 23.771428 12.8 5.485714-1.828571 12.8-1.828571 14.628572-10.971428 3.657143 1.828571 7.314286 5.485714 10.971428 10.971428 0-3.657143 3.657143-7.314286 5.485714-16.457142-7.314286 3.657143-14.628571 7.314286-25.6 7.314285 0-5.485714 7.314286 0 3.657143-5.485714-3.657143-3.657143-3.657143 3.657143-7.314285 1.828571 3.657143-5.485714-9.142857-1.828571-5.485715-9.142857 14.628571 3.657143 21.942857-1.828571 36.571429 5.485715-1.828571 0-7.314286 9.142857-3.657143 10.971428 5.485714-1.828571 7.314286-12.8 14.628571-16.457143 3.657143 1.828571 12.8 0 9.142858 7.314286 5.485714 0 0-5.485714 1.828571-5.485714 32.914286 7.314286 78.628571-3.657143 95.085714 3.657143 1.828571 0 1.828571-3.657143 3.657143-7.314286 12.8 5.485714 25.6-1.828571 36.571429 5.485714 1.828571 0 1.828571-3.657143 3.657143-3.657143 85.942857 1.828571 166.4-5.485714 256 0 0 3.657143 1.828571 5.485714 1.828571 9.142857 7.314286-3.657143-3.657143-7.314286-1.828571-12.8 18.285714 1.828571 36.571429 0 53.028571 0v-1.828571l32.914286-1.828571v1.828571c67.657143 3.657143 56.685714 0 124.342857 3.657143-1.828571 5.485714 3.657143 16.457143-5.485714 18.285714 7.314286 5.485714 7.314286 16.457143 3.657142 25.6-3.657143 0-1.828571-3.657143-3.657142-5.485714-1.828571 0-1.828571 3.657143-3.657143 3.657143 0 5.485714 7.314286 5.485714 7.314285 7.314285zM25.6 362.057143l-23.771429-16.457143 23.771429 16.457143z"  horiz-adv-x="1450" />

    
    <glyph glyph-name="icon_gouxuan" unicode="&#59024;" d="M793.6 0H230.4C173.8 0 128 45.8 128 102.4V665.6c0 56.6 45.8 102.4 102.4 102.4h563.2c56.6 0 102.4-45.8 102.4-102.4v-563.2c0-56.6-45.8-102.4-102.4-102.4z m51.2 665.6c0 28.3-22.9 51.2-51.2 51.2H230.4c-28.3 0-51.2-22.9-51.2-51.2v-563.2c0-28.3 22.9-51.2 51.2-51.2h563.2c28.3 0 51.2 22.9 51.2 51.2V665.6z m-373.9-512L256 368.9l54.9 43.6 124.4-96c50.8 59.5 163.8 178.2 319.5 272.3l13.2-29.9c-143-129.6-260.1-312-297.1-405.3z"  horiz-adv-x="1024" />

    
    <glyph glyph-name="icon_loading" unicode="&#59026;" d="M421.236 794.15a101.85 101.85 0 1 1 203.7 0 101.85 101.85 0 1 1-203.7 0zM673.806 708.491a96.031 96.031 0 1 1 192.062 0 96.031 96.031 0 1 1-192.063 0zM813.077 514.604a90.21 90.21 0 1 1 180.42 0 90.21 90.21 0 1 1-180.42 0zM821.56 286.278a84.39 84.39 0 1 1 168.781 0 84.39 84.39 0 1 1-168.78 0zM721.427 109.873a78.57 78.57 0 1 1 157.14 0 78.57 78.57 0 1 1-157.14 0zM532.446 6.291a72.75 72.75 0 1 1 145.501 0 72.75 72.75 0 1 1-145.501 0zM330.217 18.142a66.932 66.932 0 1 1 133.863 0 66.932 66.932 0 1 1-133.863 0zM162.555 133.516a61.11 61.11 0 1 1 122.221 0 61.11 61.11 0 1 1-122.221 0zM79.193 308.851a55.29 55.29 0 1 1 110.58 0 55.29 55.29 0 1 1-110.58 0zM85.926 487.103a49.47 49.47 0 1 1 98.94 0 49.47 49.47 0 1 1-98.94 0zM161.687 635.953a43.65 43.65 0 1 1 87.3 0 43.65 43.65 0 1 1-87.3 0zM277.985 736.01a37.83 37.83 0 1 1 75.66 0 37.83 37.83 0 1 1-75.66 0z"  horiz-adv-x="1024" />

    
    <glyph glyph-name="icon_jiekuan_chenggong" unicode="&#59041;" d="M512 750.7c-202.5 0-366.7-164.2-366.7-366.7S309.5 17.3 512 17.3 878.7 181.5 878.7 384 714.5 750.7 512 750.7z m0-658.7c-161.3 0-292 130.7-292 292s130.7 292 292 292 292-130.7 292-292-130.7-292-292-292zM682 531.4c-11 0-20.9-4.8-27.6-12.4l-215-201-80.5 90.1c-0.9 1.2-1.9 2.3-3 3.4l-0.5 0.6c-6.7 6.3-15.7 10.3-25.6 10.3-20.6 0-37.2-16.7-37.2-37.2 0-9.9 3.9-19 10.3-25.6l132.7-146.7 271.3 254-0.1 0.1c7.6 6.8 12.4 16.6 12.4 27.6-0.2 20.2-16.8 36.8-37.2 36.8z"  horiz-adv-x="1024" />

    
    <glyph glyph-name="icon_jiekuan_shenhe" unicode="&#59042;" d="M548.6 420.6h146.3c20.2 0 36.6-16.4 36.6-36.6s-16.4-36.6-36.6-36.6H512c-20.2 0-36.6 16.4-36.6 36.6V566.9c0 20.2 16.4 36.6 36.6 36.6s36.6-16.4 36.6-36.6v-146.3zM512 749.7C310 749.7 146.3 586 146.3 384S310 18.3 512 18.3 877.7 182 877.7 384 714 749.7 512 749.7z m0-658.3c-161.6 0-292.6 131-292.6 292.6s131 292.6 292.6 292.6 292.6-131 292.6-292.6-131-292.6-292.6-292.6z"  horiz-adv-x="1024" />

    
    <glyph glyph-name="icon_jiekuan_shibai" unicode="&#59043;" d="M512.1 604.1c-20.2 0-36.6-16.4-36.6-36.6v-256c0-20.2 16.4-36.6 36.6-36.6 20.2 0 36.6 16.4 36.6 36.6v256c0 20.3-16.4 36.6-36.6 36.6zM478.295204 187.805561a36.6 36.6 0 1 1 67.627982 28.012427 36.6 36.6 0 1 1-67.627982-28.012427ZM512 749.4c-201.8 0-365.4-163.6-365.4-365.4S310.1 18.6 512 18.6 877.4 182.2 877.4 384 713.8 749.4 512 749.4z m0-658.1c-161.7 0-292.7 131.1-292.7 292.7s131 292.7 292.7 292.7S804.7 545.6 804.7 384 673.6 91.3 512 91.3z"  horiz-adv-x="1024" />

    
    <glyph glyph-name="icon_jiekuan_zhanghu" unicode="&#59044;" d="M189.2 195.2V610.8c0 76.3 58.7 138.9 131.9 138.9h381.7c73.3 0 131.9-62.6 131.9-138.9v-415.7l32.4 10c19.3 6 39.7-5.1 45.5-24.7 5.9-19.6-5-40.3-24.3-46.3l-375-115.8-377.6 115.8c-19.3 5.9-30.2 26.6-24.4 46.2 5.8 19.6 26.2 30.7 45.5 24.8l32.4-9.9z m572.6-22.6V610.8c0 36.1-26.8 64.7-58.9 64.7H321.1c-32.1 0-58.9-28.6-58.9-64.7v-438l251.1-77 248.5 76.8zM485.2 390.1h-91.5c-15.5 0-28 11.9-28 26.6s12.5 26.6 28 26.6h112l-110.2 95.6c-11.4 9.9-12.2 26.7-1.8 37.6 10.4 10.8 28.1 11.6 39.5 1.7l78.7-68.3 78.1 68.3c11.4 9.9 29.1 9.2 39.5-1.6 10.5-10.8 9.7-27.6-1.6-37.6l-109.5-95.7h111.7c15.5 0 28-11.9 28-26.6s-12.5-26.6-28-26.6h-91.9l0.1-44.3h91.8c15.5 0 28-11.9 28-26.6 0-14.7-12.5-26.6-28-26.6h-91.7l0.1-87.8c0-15.5-11.9-28-26.6-28-14.7 0-26.6 12.5-26.6 27.9l-0.1 87.8h-91.7c-15.5 0-28 11.9-28 26.6 0 14.7 12.5 26.6 28 26.6h91.6l0.1 44.4z"  horiz-adv-x="1024" />

    


  </font>
</defs>
</svg>
